<svg id="Warstwa_1" data-name="Warstwa 1" xmlns="http://www.w3.org/2000/svg" width="0.48mm" height="0.69mm" viewBox="0 0 1.35 1.95"><defs><style>.cls-1{fill:gray;}</style></defs><title>location</title><path id="Facebook_Places" data-name="Facebook Places" class="cls-1" d="M128.64,325.09a.21.21,0,0,0,0-.07.67.67,0,0,0-1.28.19v.14a1.8,1.8,0,0,0,.29.59c.13.21.25.42.38.62l.23-.4.07-.11,0-.07a1.62,1.62,0,0,0,.32-.68v-.09S128.64,325.1,128.64,325.09Zm-.64.42a.24.24,0,0,1-.23-.16.18.18,0,0,1,0-.06v-.05A.23.23,0,0,1,128,325a.25.25,0,0,1,0,.5Z" transform="translate(-127.33 -324.61)"/></svg>