<svg id="Warstwa_1" data-name="Warstwa 1" xmlns="http://www.w3.org/2000/svg" width="73.44mm" height="15.16mm" viewBox="0 0 208.19 42.97"><defs><style>.cls-1{font-size:7.4px;font-family:Raleway-Bold, Raleway;font-weight:700;letter-spacing:0.08em;}.cls-1,.cls-12,.cls-8{fill:#4c494b;}.cls-2{letter-spacing:0.06em;}.cls-3{letter-spacing:0.05em;}.cls-4{letter-spacing:0.05em;}.cls-5{letter-spacing:0.05em;}.cls-6{fill:#4b494b;}.cls-7{fill:#29b574;}.cls-8{font-size:27.3px;}.cls-12,.cls-8{font-family:Raleway-ExtraBold, Raleway;font-weight:800;}.cls-9{letter-spacing:0.05em;}.cls-10{letter-spacing:0.02em;}.cls-11{font-size:28.09px;}.cls-12{font-size:13.65px;letter-spacing:-0.06em;}.cls-13{letter-spacing:0.05em;}</style></defs><title>logo-full</title><text class="cls-1" transform="translate(148.33 41.27)">AI p<tspan class="cls-2" x="15.92" y="0">ow</tspan><tspan x="27.5" y="0">e</tspan><tspan class="cls-3" x="32.53" y="0">r</tspan><tspan x="35.79" y="0">ed </tspan><tspan class="cls-4" x="48.54" y="0">Q</tspan><tspan class="cls-5" x="54.53" y="0">A</tspan></text><path class="cls-6" d="M220.3,413.77l-13.89-13.89a1.5,1.5,0,0,0-2.13,0l-3.89,3.89,10,10a1.5,1.5,0,0,1,0,2.13l-10,10,3.89,3.9a1.52,1.52,0,0,0,2.13,0L220.3,415.9A1.51,1.51,0,0,0,220.3,413.77Z" transform="translate(-189.7 -399.44)"/><path class="cls-7" d="M206.4,413.91l-8.3-8.3-4.19,4.19,0,0-3.67,3.68a1.91,1.91,0,0,0,0,2.71l3.62,3.63,0,0,4.19,4.19,8.36-8.36A1.27,1.27,0,0,0,206.4,413.91Z" transform="translate(-189.7 -399.44)"/><text class="cls-8" transform="translate(37.72 24.62)"><tspan class="cls-9">AI</tspan><tspan class="cls-10" x="29.21" y="0">Q</tspan><tspan class="cls-9" x="50.62" y="0">A</tspan><tspan class="cls-11" x="70.27" y="0"> </tspan></text><text class="cls-12" transform="translate(111.25 24.62)">T<tspan class="cls-13" x="7.6" y="0">echnologies</tspan></text></svg>