<svg id="Warstwa_1" data-name="Warstwa 1" xmlns="http://www.w3.org/2000/svg" width="207.81" height="42.84" viewBox="0 0 207.81 42.84"><defs><style>.cls-1{isolation:isolate;}.cls-2{fill:#fff;}.cls-3{fill:#29b574;}</style></defs><title>logo-full-white</title><g class="cls-1"><path class="cls-2" d="M150.38,36h.9l2,5.26h-1.05L151.74,40h-1.83l-.48,1.31h-1.05Zm1.18,3.23-.73-2.07-.75,2.07Z" transform="translate(0 -0.01)"/><path class="cls-2" d="M154.45,41.28V36h1v5.26Z" transform="translate(0 -0.01)"/><path class="cls-2" d="M161.75,41.35a1.54,1.54,0,0,1-.79-.2,1.5,1.5,0,0,1-.54-.55v2.25h-1V37.4h.87v.66a1.55,1.55,0,0,1,.55-.53,1.68,1.68,0,0,1,1.51,0,1.86,1.86,0,0,1,.57.43,1.79,1.79,0,0,1,.38.64,2.19,2.19,0,0,1,.14.77,2.26,2.26,0,0,1-.13.79,2,2,0,0,1-.35.65,1.82,1.82,0,0,1-.53.43A1.58,1.58,0,0,1,161.75,41.35Zm-.33-.84a.92.92,0,0,0,.41-.1.82.82,0,0,0,.32-.26,1.17,1.17,0,0,0,.21-.38,1.32,1.32,0,0,0,.08-.44,1.13,1.13,0,0,0-.09-.45,1,1,0,0,0-.22-.37,1.2,1.2,0,0,0-.34-.25,1.18,1.18,0,0,0-.43-.08,1,1,0,0,0-.29,0,1.15,1.15,0,0,0-.27.14,1.51,1.51,0,0,0-.23.21,1.1,1.1,0,0,0-.15.26v.91a1.4,1.4,0,0,0,.41.55A1,1,0,0,0,161.42,40.51Z" transform="translate(0 -0.01)"/></g><g class="cls-1"><g class="cls-1"><path class="cls-2" d="M166.5,41.35a2.08,2.08,0,0,1-.85-.16,2,2,0,0,1-.64-.44,1.87,1.87,0,0,1-.4-.64,2,2,0,0,1-.15-.77,1.94,1.94,0,0,1,.15-.76,1.88,1.88,0,0,1,1-1.08,2.21,2.21,0,0,1,1.7,0,1.67,1.67,0,0,1,.63.44,1.85,1.85,0,0,1,.41.64,2.14,2.14,0,0,1,.14.76,2.19,2.19,0,0,1-.14.77,2.23,2.23,0,0,1-.4.64,2,2,0,0,1-1.49.6Zm-1-2a1.37,1.37,0,0,0,.07.47,1.21,1.21,0,0,0,.22.37.82.82,0,0,0,.32.24.93.93,0,0,0,.8,0,.82.82,0,0,0,.32-.24,1.34,1.34,0,0,0,.22-.37,1.61,1.61,0,0,0,0-.94,1.34,1.34,0,0,0-.22-.37,1.08,1.08,0,0,0-.32-.24.9.9,0,0,0-.4-.08,1.06,1.06,0,0,0-.4.08,1.11,1.11,0,0,0-.32.25,1.34,1.34,0,0,0-.22.37A1.39,1.39,0,0,0,165.49,39.34Z" transform="translate(0 -0.01)"/></g><g class="cls-1"><path class="cls-2" d="M174.31,37.4h.94l-1.62,3.88h-.82l-.66-1.71-.66,1.71h-.81l-1.62-3.88H170l1.15,2.94.47-1.25-.68-1.68h.8l.41,1.19.41-1.19h.8l-.67,1.68.47,1.25Z" transform="translate(0 -0.01)"/></g></g><g class="cls-1"><path class="cls-2" d="M178.09,41.35a2.15,2.15,0,0,1-.85-.16,2.06,2.06,0,0,1-.64-.43,2.06,2.06,0,0,1-.56-1.4,2,2,0,0,1,.15-.78,1.86,1.86,0,0,1,1.05-1.08,2.11,2.11,0,0,1,.85-.17,2.08,2.08,0,0,1,.85.17,1.9,1.9,0,0,1,.64.43,1.92,1.92,0,0,1,.4.64,2.12,2.12,0,0,1,.14.75c0,.07,0,.13,0,.19a.61.61,0,0,1,0,.15h-3a1,1,0,0,0,.11.4,1,1,0,0,0,.23.31,1.23,1.23,0,0,0,.31.19,1.19,1.19,0,0,0,.37.06,1.08,1.08,0,0,0,.56-.14.73.73,0,0,0,.36-.38l.85.24a1.76,1.76,0,0,1-.68.73A2.12,2.12,0,0,1,178.09,41.35Zm1-2.34a1,1,0,0,0-.32-.7,1,1,0,0,0-.69-.26.9.9,0,0,0-.37.07.92.92,0,0,0-.31.2,1,1,0,0,0-.22.3,1,1,0,0,0-.1.39Z" transform="translate(0 -0.01)"/></g><g class="cls-1"><path class="cls-2" d="M183.63,38.26a1.92,1.92,0,0,0-.81.17,1,1,0,0,0-.51.5v2.35h-1V37.4h.91v.83a1.61,1.61,0,0,1,.24-.36,2,2,0,0,1,.31-.28,1.35,1.35,0,0,1,.33-.18,1,1,0,0,1,.32-.06h.2Z" transform="translate(0 -0.01)"/></g><g class="cls-1"><path class="cls-2" d="M186.38,41.35a2.15,2.15,0,0,1-.85-.16,2.06,2.06,0,0,1-.64-.43,2.06,2.06,0,0,1-.56-1.4,2,2,0,0,1,.15-.78,1.86,1.86,0,0,1,1.05-1.08,2.11,2.11,0,0,1,.85-.17,2.08,2.08,0,0,1,.85.17,1.9,1.9,0,0,1,.64.43,1.92,1.92,0,0,1,.4.64,2.12,2.12,0,0,1,.14.75c0,.07,0,.13,0,.19a.61.61,0,0,1,0,.15h-3a1,1,0,0,0,.11.4,1,1,0,0,0,.23.31,1.23,1.23,0,0,0,.31.19,1.21,1.21,0,0,0,.38.06,1.07,1.07,0,0,0,.55-.14.73.73,0,0,0,.36-.38l.85.24a1.76,1.76,0,0,1-.68.73A2.12,2.12,0,0,1,186.38,41.35Zm1-2.34a1,1,0,0,0-.32-.7,1,1,0,0,0-.69-.26.9.9,0,0,0-.37.07.92.92,0,0,0-.31.2,1,1,0,0,0-.22.3,1,1,0,0,0-.1.39Z" transform="translate(0 -0.01)"/><path class="cls-2" d="M191.21,41.35a1.81,1.81,0,0,1-.74-.15,2,2,0,0,1-.59-.43,2.41,2.41,0,0,1-.38-.64,2.3,2.3,0,0,1-.13-.79,2.26,2.26,0,0,1,.13-.79,1.79,1.79,0,0,1,.36-.63,1.49,1.49,0,0,1,.54-.43,1.53,1.53,0,0,1,.7-.16,1.46,1.46,0,0,1,.77.21,1.55,1.55,0,0,1,.54.54V35.87h1v4.27a.42.42,0,0,0,0,.22.25.25,0,0,0,.18.07v.85a2.6,2.6,0,0,1-.42,0,.74.74,0,0,1-.44-.13.49.49,0,0,1-.19-.35l0-.25a1.42,1.42,0,0,1-.58.56A1.62,1.62,0,0,1,191.21,41.35Zm.26-.84a1,1,0,0,0,.29,0,.87.87,0,0,0,.27-.14,1.15,1.15,0,0,0,.23-.21,1,1,0,0,0,.15-.25v-.93a1.11,1.11,0,0,0-.17-.3,1.36,1.36,0,0,0-.24-.24,1.14,1.14,0,0,0-.29-.15.8.8,0,0,0-.3-.06.91.91,0,0,0-.41.09,1,1,0,0,0-.32.26,1.33,1.33,0,0,0-.21.39,1.31,1.31,0,0,0-.07.44,1.12,1.12,0,0,0,.08.45,1.09,1.09,0,0,0,.22.36.94.94,0,0,0,.34.25A1,1,0,0,0,191.47,40.51Z" transform="translate(0 -0.01)"/></g><g class="cls-1"><path class="cls-2" d="M201,40.94a2.65,2.65,0,0,1-.62.27,2.34,2.34,0,0,1-.71.1,2.25,2.25,0,0,1-1-.23,2.67,2.67,0,0,1-.81-.6,2.81,2.81,0,0,1-.52-.85,2.74,2.74,0,0,1-.18-1,2.67,2.67,0,0,1,.19-1,2.79,2.79,0,0,1,.54-.85,2.68,2.68,0,0,1,.82-.59,2.53,2.53,0,0,1,1-.21,2.24,2.24,0,0,1,1,.23,2.54,2.54,0,0,1,.8.61,2.79,2.79,0,0,1,.52.86,2.74,2.74,0,0,1,.19,1,2.52,2.52,0,0,1-.19,1,2.79,2.79,0,0,1-.5.83l.72.81h-1Zm-1.32-.53a1.5,1.5,0,0,0,.37,0,1.27,1.27,0,0,0,.32-.13l-.8-.9h1l.37.41a2.2,2.2,0,0,0,.22-.52,1.88,1.88,0,0,0,.09-.57,2.08,2.08,0,0,0-.11-.66,1.77,1.77,0,0,0-.3-.56,1.5,1.5,0,0,0-.48-.39,1.48,1.48,0,0,0-1.3,0,1.35,1.35,0,0,0-.48.4,1.94,1.94,0,0,0-.3.57,2.31,2.31,0,0,0-.1.64,2.08,2.08,0,0,0,.11.66,1.77,1.77,0,0,0,.3.56,1.53,1.53,0,0,0,.48.39A1.36,1.36,0,0,0,199.68,40.41Z" transform="translate(0 -0.01)"/></g><g class="cls-1"><path class="cls-2" d="M204.91,36h.9l2,5.26h-1.05L206.27,40h-1.83L204,41.28h-1.05Zm1.18,3.23-.73-2.07-.75,2.07Z" transform="translate(0 -0.01)"/></g><path class="cls-2" d="M30.62,14.34,16.73.45a1.49,1.49,0,0,0-2.12,0h0l-3.9,3.89,10,10a1.51,1.51,0,0,1,0,2.12h0l-10,10,3.89,3.9a1.52,1.52,0,0,0,2.13,0L30.62,16.47A1.52,1.52,0,0,0,30.62,14.34Z" transform="translate(0 -0.01)"/><path class="cls-3" d="M16.72,14.48l-8.3-8.3L4.23,10.37h0L.56,14a1.9,1.9,0,0,0,0,2.7h0l3.62,3.63h0l4.19,4.19,8.36-8.36A1.27,1.27,0,0,0,16.72,14.48Z" transform="translate(0 -0.01)"/><g class="cls-1"><path class="cls-2" d="M44.86,5.24h4L56,24.63H51.39l-1.5-4.34h-6l-1.47,4.34H37.79Zm4.29,12-2.27-6.85L44.56,17.2Z" transform="translate(0 -0.01)"/><path class="cls-2" d="M59.25,24.63V5.24h4.48V24.63Z" transform="translate(0 -0.01)"/></g><g class="cls-1"><path class="cls-2" d="M82,23.54a10.2,10.2,0,0,1-2.23.9,9.65,9.65,0,0,1-2.49.32,9.12,9.12,0,0,1-3.94-.83,9.48,9.48,0,0,1-3-2.21,10.41,10.41,0,0,1-2-3.15,10.07,10.07,0,0,1-.69-3.66,9.74,9.74,0,0,1,.72-3.69,10.07,10.07,0,0,1,2-3.14A9.77,9.77,0,0,1,73.5,5.91a9.39,9.39,0,0,1,3.88-.8A8.78,8.78,0,0,1,81.31,6a9.75,9.75,0,0,1,3,2.25A10.24,10.24,0,0,1,87,15a9.88,9.88,0,0,1-2.51,6.58l2.78,3.06H83Zm-4.7-2.76a4.68,4.68,0,0,0,1.91-.36L76.12,17h4.21l1.2,1.34a6.17,6.17,0,0,0,.65-1.64,7,7,0,0,0,.22-1.77,7.18,7.18,0,0,0-.33-2.17,5.52,5.52,0,0,0-1-1.86,5.06,5.06,0,0,0-1.6-1.3,4.69,4.69,0,0,0-2.17-.49,4.61,4.61,0,0,0-2.22.51,4.91,4.91,0,0,0-1.59,1.34,5.84,5.84,0,0,0-1,1.88A7.39,7.39,0,0,0,72.25,15a7.17,7.17,0,0,0,.32,2.17,5.69,5.69,0,0,0,1,1.86,4.85,4.85,0,0,0,1.6,1.3A4.79,4.79,0,0,0,77.32,20.78Z" transform="translate(0 -0.01)"/></g><g class="cls-1"><path class="cls-2" d="M95.48,5.24h4l7.08,19.39H102l-1.5-4.34h-6L93,24.63H88.41Zm4.29,12L97.5,10.35,95.18,17.2Z" transform="translate(0 -0.01)"/></g><g class="cls-1"><path class="cls-2" d="M119.58,16.9h-3v7.73h-2.24V16.9h-3v-2h8.15Z" transform="translate(0 -0.01)"/></g><g class="cls-1"><path class="cls-2" d="M123,24.76a4.16,4.16,0,0,1-1.61-.29,3.59,3.59,0,0,1-1.22-.8,3.35,3.35,0,0,1-.75-1.17,3.6,3.6,0,0,1-.26-1.38,4,4,0,0,1,.26-1.47,3.48,3.48,0,0,1,2-2,4.23,4.23,0,0,1,1.63-.3,4.12,4.12,0,0,1,1.63.3,3.65,3.65,0,0,1,1.2.82,3.39,3.39,0,0,1,.75,1.18,4.08,4.08,0,0,1,.25,1.4c0,.13,0,.25,0,.38a2.53,2.53,0,0,1,0,.32h-5.29a1.47,1.47,0,0,0,.52,1.1,1.68,1.68,0,0,0,1.07.37A1.94,1.94,0,0,0,124,23a1.17,1.17,0,0,0,.59-.63l1.86.52a3.3,3.3,0,0,1-1.32,1.38A4,4,0,0,1,123,24.76Zm1.52-4.39a1.61,1.61,0,0,0-.49-1.08,1.49,1.49,0,0,0-1-.4,1.46,1.46,0,0,0-1.06.41,1.6,1.6,0,0,0-.48,1.07Z" transform="translate(0 -0.01)"/><path class="cls-2" d="M128.12,21a4,4,0,0,1,.26-1.42,3.55,3.55,0,0,1,.75-1.18,3.6,3.6,0,0,1,1.21-.82,4.19,4.19,0,0,1,1.63-.3,3.88,3.88,0,0,1,2.09.53,3.41,3.41,0,0,1,1.27,1.37l-2.13.64a1.38,1.38,0,0,0-1.24-.68,1.45,1.45,0,0,0-1.14.51,1.89,1.89,0,0,0-.46,1.35,2.35,2.35,0,0,0,.12.77,1.81,1.81,0,0,0,.35.59,1.48,1.48,0,0,0,.51.38,1.31,1.31,0,0,0,.62.14,1.5,1.5,0,0,0,.75-.2,1.17,1.17,0,0,0,.5-.51l2.13.66a3.16,3.16,0,0,1-1.26,1.36,3.91,3.91,0,0,1-2.11.53,4.09,4.09,0,0,1-1.61-.3,3.79,3.79,0,0,1-1.22-.82,3.56,3.56,0,0,1-.76-1.19A4,4,0,0,1,128.12,21Z" transform="translate(0 -0.01)"/><path class="cls-2" d="M143.92,24.63h-2.19v-4a1.58,1.58,0,0,0-.27-1,.92.92,0,0,0-.75-.33,1.14,1.14,0,0,0-.42.09,1.5,1.5,0,0,0-.43.26,1.65,1.65,0,0,0-.39.4,1.86,1.86,0,0,0-.28.52v4.11H137v-10h2.18v4a2.7,2.7,0,0,1,1.05-1,3,3,0,0,1,1.42-.35,2.3,2.3,0,0,1,1.17.26,1.75,1.75,0,0,1,.68.64,2.33,2.33,0,0,1,.32.87,5.17,5.17,0,0,1,.09.95Z" transform="translate(0 -0.01)"/><path class="cls-2" d="M153,24.63h-2.18v-4a1.59,1.59,0,0,0-.27-1,.85.85,0,0,0-.7-.32,1.22,1.22,0,0,0-.46.09,2.4,2.4,0,0,0-.46.27,2.07,2.07,0,0,0-.38.4,1.79,1.79,0,0,0-.27.51v4.11h-2.18V17.46h2v1.2a2.63,2.63,0,0,1,1.12-1,3.83,3.83,0,0,1,1.67-.35,2.18,2.18,0,0,1,1.12.26,1.69,1.69,0,0,1,.65.65,2.64,2.64,0,0,1,.31.88A6,6,0,0,1,153,20Z" transform="translate(0 -0.01)"/><path class="cls-2" d="M158.49,24.76a4.19,4.19,0,0,1-1.63-.3,3.47,3.47,0,0,1-2-2,4.1,4.1,0,0,1,0-2.82,3.44,3.44,0,0,1,.75-1.19,3.6,3.6,0,0,1,1.2-.82,4.44,4.44,0,0,1,3.26,0,3.81,3.81,0,0,1,1.2.82,3.44,3.44,0,0,1,.75,1.19,4,4,0,0,1,0,2.82,3.44,3.44,0,0,1-.75,1.19,3.48,3.48,0,0,1-1.21.81A4.16,4.16,0,0,1,158.49,24.76Zm-1.59-3.71a2,2,0,0,0,.45,1.36,1.45,1.45,0,0,0,1.14.51,1.33,1.33,0,0,0,.63-.14,1.55,1.55,0,0,0,.5-.38,2,2,0,0,0,.34-.59,2.33,2.33,0,0,0,.12-.76,2,2,0,0,0-.45-1.36,1.45,1.45,0,0,0-1.14-.51,1.49,1.49,0,0,0-.63.14,1.45,1.45,0,0,0-.51.38,1.77,1.77,0,0,0-.33.59A2.33,2.33,0,0,0,156.9,21.05Z" transform="translate(0 -0.01)"/><path class="cls-2" d="M164.06,14.66h2.19v7.41c0,.55.23.82.69.82a1.59,1.59,0,0,0,.36,0,1.37,1.37,0,0,0,.37-.15l.28,1.64a3.85,3.85,0,0,1-.94.3,5.18,5.18,0,0,1-1,.11,2,2,0,0,1-1.44-.49,1.88,1.88,0,0,1-.51-1.42Z" transform="translate(0 -0.01)"/><path class="cls-2" d="M172.76,24.76a4.16,4.16,0,0,1-1.63-.3,3.57,3.57,0,0,1-1.21-.81,3.44,3.44,0,0,1-.75-1.19,4.1,4.1,0,0,1,0-2.82,3.44,3.44,0,0,1,.75-1.19,3.75,3.75,0,0,1,1.21-.82,4.16,4.16,0,0,1,1.63-.31,4.1,4.1,0,0,1,1.62.31,3.6,3.6,0,0,1,1.2.82,3.44,3.44,0,0,1,.75,1.19,3.75,3.75,0,0,1,.26,1.41,4,4,0,0,1-.25,1.41,3.39,3.39,0,0,1-2,2A4.19,4.19,0,0,1,172.76,24.76Zm-1.6-3.71a2,2,0,0,0,.45,1.36,1.46,1.46,0,0,0,1.15.51,1.31,1.31,0,0,0,.62-.14,1.45,1.45,0,0,0,.5-.38,1.79,1.79,0,0,0,.34-.59,2.33,2.33,0,0,0,.12-.76,2,2,0,0,0-.45-1.36,1.45,1.45,0,0,0-1.13-.51,1.53,1.53,0,0,0-.64.14,1.42,1.42,0,0,0-.5.38,2,2,0,0,0-.34.59A2.33,2.33,0,0,0,171.16,21.05Z" transform="translate(0 -0.01)"/><path class="cls-2" d="M181.14,24.65a3,3,0,0,1-1.3-.28,3,3,0,0,1-1-.78,3.51,3.51,0,0,1-.65-1.15A4.24,4.24,0,0,1,178,21a4.36,4.36,0,0,1,.24-1.47,3.59,3.59,0,0,1,.69-1.17,3,3,0,0,1,1.05-.79,3.17,3.17,0,0,1,1.35-.29,2.82,2.82,0,0,1,1.42.35,2.65,2.65,0,0,1,1,1V17.46h1.9v6.67a3.38,3.38,0,0,1-.31,1.48,3.11,3.11,0,0,1-.85,1.11,3.74,3.74,0,0,1-1.31.7,5.29,5.29,0,0,1-1.68.25,4.76,4.76,0,0,1-2-.37A4.11,4.11,0,0,1,178,26.24l1.17-1.19a2.87,2.87,0,0,0,1,.72,3.12,3.12,0,0,0,1.26.26,2.35,2.35,0,0,0,.75-.11,1.81,1.81,0,0,0,.63-.33,1.64,1.64,0,0,0,.43-.59,2.26,2.26,0,0,0,.15-.87v-.69a2.12,2.12,0,0,1-.94.91A3,3,0,0,1,181.14,24.65Zm.75-1.73a1.48,1.48,0,0,0,.9-.28,1.93,1.93,0,0,0,.61-.72v-1.5a2,2,0,0,0-.66-.91,1.59,1.59,0,0,0-1-.33,1.31,1.31,0,0,0-.65.16,1.54,1.54,0,0,0-.5.42,2.11,2.11,0,0,0-.33.61,2.27,2.27,0,0,0-.12.72,2.15,2.15,0,0,0,.13.73,1.89,1.89,0,0,0,.36.58,1.83,1.83,0,0,0,.54.38A1.53,1.53,0,0,0,181.89,22.92Z" transform="translate(0 -0.01)"/><path class="cls-2" d="M187.77,16.64v-2H190v2Zm0,8V17.46H190v7.17Z" transform="translate(0 -0.01)"/><path class="cls-2" d="M195.57,24.76a4.18,4.18,0,0,1-1.62-.29,3.69,3.69,0,0,1-1.22-.8A3.35,3.35,0,0,1,192,22.5a3.6,3.6,0,0,1-.26-1.38,4,4,0,0,1,.26-1.47,3.46,3.46,0,0,1,2-2,4.16,4.16,0,0,1,1.63-.3,4.11,4.11,0,0,1,1.62.3,3.65,3.65,0,0,1,1.2.82,3.39,3.39,0,0,1,.75,1.18,4.08,4.08,0,0,1,.25,1.4c0,.13,0,.25,0,.38a2.4,2.4,0,0,1,0,.32H194a1.47,1.47,0,0,0,.52,1.1,1.68,1.68,0,0,0,1.07.37,1.94,1.94,0,0,0,.93-.23,1.17,1.17,0,0,0,.59-.63l1.86.52a3.34,3.34,0,0,1-1.31,1.38A4.06,4.06,0,0,1,195.57,24.76Zm1.51-4.39a1.61,1.61,0,0,0-.49-1.08,1.49,1.49,0,0,0-1.05-.4,1.46,1.46,0,0,0-1.06.41,1.6,1.6,0,0,0-.48,1.07Z" transform="translate(0 -0.01)"/><path class="cls-2" d="M203.89,24.76a5.56,5.56,0,0,1-1.8-.29,4.23,4.23,0,0,1-1.5-.85l.78-1.34a6.15,6.15,0,0,0,1.27.69,3.19,3.19,0,0,0,1.2.25,1.18,1.18,0,0,0,.65-.15.49.49,0,0,0,.24-.44.5.5,0,0,0-.3-.45,4.19,4.19,0,0,0-1-.37,11.9,11.9,0,0,1-1.22-.39,3.79,3.79,0,0,1-.81-.42,1.42,1.42,0,0,1-.45-.54,1.7,1.7,0,0,1-.14-.71,2.18,2.18,0,0,1,.22-1,2.15,2.15,0,0,1,.6-.77,2.83,2.83,0,0,1,.91-.49,3.49,3.49,0,0,1,1.14-.18,5.3,5.3,0,0,1,1.51.22,3.85,3.85,0,0,1,1.35.79l-.84,1.31a6.29,6.29,0,0,0-1.09-.61,2.45,2.45,0,0,0-.93-.19,1.21,1.21,0,0,0-.6.14.49.49,0,0,0-.25.46.48.48,0,0,0,.27.45,4.21,4.21,0,0,0,1,.33,10.47,10.47,0,0,1,1.29.41,3.53,3.53,0,0,1,.85.45,1.62,1.62,0,0,1,.48.58,1.87,1.87,0,0,1,.15.78,2.05,2.05,0,0,1-.79,1.69A3.37,3.37,0,0,1,203.89,24.76Z" transform="translate(0 -0.01)"/></g></svg>