<svg id="Warstwa_1" data-name="Warstwa 1" xmlns="http://www.w3.org/2000/svg" width="180.62mm" height="129.02mm" viewBox="0 0 512 365.71"><defs><style>.cls-1{fill:gray;}</style></defs><title>mail</title><path class="cls-1" d="M297.64,387.29,234.3,331.85,53.19,487.09A37.09,37.09,0,0,0,78.47,497H516.81A36.79,36.79,0,0,0,542,487.09L361,331.85Z" transform="translate(-41.64 -131.29)"/><path class="cls-1" d="M542.08,141.2a36.84,36.84,0,0,0-25.27-9.91H78.47a36.67,36.67,0,0,0-25.2,10L297.64,350.72Z" transform="translate(-41.64 -131.29)"/><polygon class="cls-1" points="0 32.11 0 335.94 176.75 185.75 0 32.11"/><polygon class="cls-1" points="335.25 185.75 512 335.94 512 32 335.25 185.75"/></svg>