<svg id="Capa_1" data-name="Capa 1" xmlns="http://www.w3.org/2000/svg" width="171.78mm" height="171.75mm" viewBox="0 0 486.92 486.85"><defs><style>.cls-1{fill:#4b494b;}</style></defs><title>multi-tool</title><path class="cls-1" d="M13.36,409.06a45.6,45.6,0,0,0,64.51,64.48L227.59,323.79l-64.51-64.45Z" transform="translate(0 -0.04)"/><polygon class="cls-1" points="387.55 131.54 452.75 97.83 486.89 31.83 455.06 0 389.1 34.17 355.32 99.31 276.01 178.72 308.17 210.94 387.55 131.54"/><path class="cls-1" d="M401.83,304.64l-6.14-.61A90.42,90.42,0,0,0,364.17,310L177,122.76a90.42,90.42,0,0,0,5.93-31.52l-.61-6.14C179.1,37.64,140,0,91.73,0A90.15,90.15,0,0,0,52.64,9.16l60.58,60.58a29.81,29.81,0,0,1,6.84,11,30.37,30.37,0,0,1-49.82,32L9.65,52.14A90.33,90.33,0,0,0,.53,91.24c0,48.27,37.61,87.36,85.06,90.59l6.14.6a91.23,91.23,0,0,0,31.52-5.89L310.39,363.71a92,92,0,0,0-5.86,31.52l.64,6.14c3.16,47.49,42.28,85.06,90.56,85.06a89.24,89.24,0,0,0,39.09-9.12l-60.59-60.59a31.05,31.05,0,0,1-6.9-10.91,30.31,30.31,0,0,1,28.4-41,29.79,29.79,0,0,1,10.57,2.07,29.14,29.14,0,0,1,10.92,6.84l60.58,60.59a89.87,89.87,0,0,0,9.12-39.1C486.89,347,449.29,307.86,401.83,304.64Z" transform="translate(0 -0.04)"/></svg>