<svg xmlns="http://www.w3.org/2000/svg" xmlns:xlink="http://www.w3.org/1999/xlink" width="677.77mm" height="211.67mm" viewBox="0 0 1921.24 600"><defs><style>.cls-1,.cls-10{fill:none;}.cls-2{isolation:isolate;}.cls-3{fill:#eee;}.cls-4,.cls-5,.cls-7,.cls-9{fill:#21376d;}.cls-10,.cls-11,.cls-39,.cls-4,.cls-40,.cls-9{opacity:0.8;}.cls-12,.cls-36,.cls-5{opacity:0.1;}.cls-6{opacity:0.67;}.cls-8{opacity:0.9;}.cls-10,.cls-9{stroke:#21376d;stroke-miterlimit:10;stroke-width:1.16px;}.cls-13{fill:url(#Gradient_bez_nazwy_128);}.cls-14{mix-blend-mode:lighten;}.cls-15,.cls-36,.cls-37{fill:#6dcace;}.cls-16{fill:url(#ŃŚÁŻž_ŪŪŻť_ūŗšŤŚŪÚ_24);}.cls-17{fill:url(#ŃŚÁŻž_ŪŪŻť_ūŗšŤŚŪÚ_2);}.cls-18{fill:#fff;}.cls-19{fill:#2e469d;}.cls-20{fill:#b0b0d8;}.cls-21{fill:#9397cb;}.cls-22{fill:#282567;}.cls-23{fill:url(#ŃŚÁŻž_ŪŪŻť_ūŗšŤŚŪÚ_2-2);}.cls-24{fill:url(#ŃŚÁŻž_ŪŪŻť_ūŗšŤŚŪÚ_2-3);}.cls-25{fill:url(#ŃŚÁŻž_ŪŪŻť_ūŗšŤŚŪÚ_24-2);}.cls-26,.cls-35{fill:#47419a;}.cls-27{fill:url(#ŃŚÁŻž_ŪŪŻť_ūŗšŤŚŪÚ_24-3);}.cls-28{fill:url(#ŃŚÁŻž_ŪŪŻť_ūŗšŤŚŪÚ_2-4);}.cls-29{fill:url(#ŃŚÁŻž_ŪŪŻť_ūŗšŤŚŪÚ_2-5);}.cls-30{fill:url(#ŃŚÁŻž_ŪŪŻť_ūŗšŤŚŪÚ_2-6);}.cls-31{fill:url(#ŃŚÁŻž_ŪŪŻť_ūŗšŤŚŪÚ_24-4);}.cls-32{fill:#bebddf;}.cls-33{fill:url(#ŃŚÁŻž_ŪŪŻť_ūŗšŤŚŪÚ_2-7);}.cls-34,.cls-35{opacity:0.51;}.cls-37{opacity:0.4;}.cls-38{fill:url(#ŃŚÁŻž_ŪŪŻť_ūŗšŤŚŪÚ_2-8);}.cls-39{fill:#ed3995;}.cls-40{fill:url(#ŃŚÁŻž_ŪŪŻť_ūŗšŤŚŪÚ_19);}.cls-41{fill:url(#ŃŚÁŻž_ŪŪŻť_ūŗšŤŚŪÚ_2-9);}.cls-42{fill:url(#ŃŚÁŻž_ŪŪŻť_ūŗšŤŚŪÚ_24-5);}.cls-43{fill:url(#ŃŚÁŻž_ŪŪŻť_ūŗšŤŚŪÚ_24-6);}.cls-44{fill:url(#ŃŚÁŻž_ŪŪŻť_ūŗšŤŚŪÚ_2-10);}.cls-45{fill:url(#ŃŚÁŻž_ŪŪŻť_ūŗšŤŚŪÚ_2-11);}.cls-46{opacity:0.11;}.cls-47{clip-path:url(#clip-path);}.cls-48{fill:url(#ŃŚÁŻž_ŪŪŻť_ūŗšŤŚŪÚ_2-12);}.cls-49{fill:url(#ŃŚÁŻž_ŪŪŻť_ūŗšŤŚŪÚ_2-13);}.cls-50{fill:url(#ŃŚÁŻž_ŪŪŻť_ūŗšŤŚŪÚ_26);}.cls-51{fill:url(#ŃŚÁŻž_ŪŪŻť_ūŗšŤŚŪÚ_2-14);}.cls-52{fill:url(#ŃŚÁŻž_ŪŪŻť_ūŗšŤŚŪÚ_24-7);}.cls-53{fill:url(#ŃŚÁŻž_ŪŪŻť_ūŗšŤŚŪÚ_24-8);}.cls-54{fill:url(#ŃŚÁŻž_ŪŪŻť_ūŗšŤŚŪÚ_2-15);}.cls-55{fill:url(#ŃŚÁŻž_ŪŪŻť_ūŗšŤŚŪÚ_2-16);}.cls-56{clip-path:url(#clip-path-2);}.cls-57{fill:url(#ŃŚÁŻž_ŪŪŻť_ūŗšŤŚŪÚ_2-17);}.cls-58{fill:url(#ŃŚÁŻž_ŪŪŻť_ūŗšŤŚŪÚ_2-18);}.cls-59{fill:#163741;}.cls-60{fill:#65bd5a;}.cls-61{fill:#4ab749;}.cls-62{fill:#26b574;}.cls-63{fill:#f9f9fa;}</style><radialGradient id="Gradient_bez_nazwy_128" cx="963.85" cy="468.97" r="3.2" gradientUnits="userSpaceOnUse"><stop offset="0" stop-color="#527c60"/><stop offset="1" stop-color="#527d60"/></radialGradient><linearGradient id="ŃŚÁŻž_ŪŪŻť_ūŗšŤŚŪÚ_24" x1="4089.82" y1="305.59" x2="4205.6" y2="305.59" gradientTransform="translate(-2743.73)" gradientUnits="userSpaceOnUse"><stop offset="0" stop-color="#5a64ad"/><stop offset="0.18" stop-color="#5f68af"/><stop offset="0.39" stop-color="#6d75b7"/><stop offset="0.62" stop-color="#858ac2"/><stop offset="0.85" stop-color="#a6a8d3"/><stop offset="1" stop-color="#bebddf"/></linearGradient><linearGradient id="ŃŚÁŻž_ŪŪŻť_ūŗšŤŚŪÚ_2" x1="4128.72" y1="301.73" x2="4244.56" y2="301.73" gradientTransform="translate(-2743.73)" gradientUnits="userSpaceOnUse"><stop offset="0" stop-color="#c2bedf"/><stop offset="0.29" stop-color="#c6c3e1"/><stop offset="0.64" stop-color="#d3d1e9"/><stop offset="1" stop-color="#e8e8f4"/></linearGradient><linearGradient id="ŃŚÁŻž_ŪŪŻť_ūŗšŤŚŪÚ_2-2" x1="4121.21" y1="292.82" x2="4150.86" y2="292.82" xlink:href="#ŃŚÁŻž_ŪŪŻť_ūŗšŤŚŪÚ_2"/><linearGradient id="ŃŚÁŻž_ŪŪŻť_ūŗšŤŚŪÚ_2-3" x1="4123.53" y1="287.47" x2="4205.5" y2="287.47" xlink:href="#ŃŚÁŻž_ŪŪŻť_ūŗšŤŚŪÚ_2"/><linearGradient id="ŃŚÁŻž_ŪŪŻť_ūŗšŤŚŪÚ_24-2" x1="4123.53" y1="308.49" x2="4137.6" y2="308.49" xlink:href="#ŃŚÁŻž_ŪŪŻť_ūŗšŤŚŪÚ_24"/><linearGradient id="ŃŚÁŻž_ŪŪŻť_ūŗšŤŚŪÚ_24-3" x1="816.73" y1="305.59" x2="932.5" y2="305.59" gradientTransform="matrix(-1, 0, 0, 1, 2451.08, 0)" xlink:href="#ŃŚÁŻž_ŪŪŻť_ūŗšŤŚŪÚ_24"/><linearGradient id="ŃŚÁŻž_ŪŪŻť_ūŗšŤŚŪÚ_2-4" x1="855.63" y1="301.73" x2="971.47" y2="301.73" gradientTransform="matrix(-1, 0, 0, 1, 2451.08, 0)" xlink:href="#ŃŚÁŻž_ŪŪŻť_ūŗšŤŚŪÚ_2"/><linearGradient id="ŃŚÁŻž_ŪŪŻť_ūŗšŤŚŪÚ_2-5" x1="848.11" y1="292.82" x2="877.77" y2="292.82" gradientTransform="matrix(-1, 0, 0, 1, 2451.08, 0)" xlink:href="#ŃŚÁŻž_ŪŪŻť_ūŗšŤŚŪÚ_2"/><linearGradient id="ŃŚÁŻž_ŪŪŻť_ūŗšŤŚŪÚ_2-6" x1="850.43" y1="287.47" x2="932.41" y2="287.47" gradientTransform="matrix(-1, 0, 0, 1, 2451.08, 0)" xlink:href="#ŃŚÁŻž_ŪŪŻť_ūŗšŤŚŪÚ_2"/><linearGradient id="ŃŚÁŻž_ŪŪŻť_ūŗšŤŚŪÚ_24-4" x1="850.43" y1="308.49" x2="864.51" y2="308.49" gradientTransform="matrix(-1, 0, 0, 1, 2451.08, 0)" xlink:href="#ŃŚÁŻž_ŪŪŻť_ūŗšŤŚŪÚ_24"/><linearGradient id="ŃŚÁŻž_ŪŪŻť_ūŗšŤŚŪÚ_2-7" x1="1523.26" y1="365.8" x2="1523.26" y2="320.65" gradientTransform="matrix(1, 0, 0, 1, 0, 0)" xlink:href="#ŃŚÁŻž_ŪŪŻť_ūŗšŤŚŪÚ_2"/><linearGradient id="ŃŚÁŻž_ŪŪŻť_ūŗšŤŚŪÚ_2-8" x1="1523.26" y1="328.36" x2="1523.26" y2="283.21" gradientTransform="matrix(1, 0, 0, 1, 0, 0)" xlink:href="#ŃŚÁŻž_ŪŪŻť_ūŗšŤŚŪÚ_2"/><radialGradient id="ŃŚÁŻž_ŪŪŻť_ūŗšŤŚŪÚ_19" cx="1511.25" cy="279.49" r="1.71" gradientUnits="userSpaceOnUse"><stop offset="0" stop-color="#ed3995"/><stop offset="0.14" stop-color="#c8449b"/><stop offset="0.33" stop-color="#a14fa1"/><stop offset="0.51" stop-color="#8258a6"/><stop offset="0.68" stop-color="#6c5faa"/><stop offset="0.85" stop-color="#5f63ac"/><stop offset="1" stop-color="#5a64ad"/></radialGradient><linearGradient id="ŃŚÁŻž_ŪŪŻť_ūŗšŤŚŪÚ_2-9" x1="3784.03" y1="351.11" x2="3867.45" y2="351.11" gradientTransform="translate(-2278.69)" xlink:href="#ŃŚÁŻž_ŪŪŻť_ūŗšŤŚŪÚ_2"/><linearGradient id="ŃŚÁŻž_ŪŪŻť_ūŗšŤŚŪÚ_24-5" x1="3784.03" y1="372.5" x2="3798.35" y2="372.5" gradientTransform="translate(-2278.69)" xlink:href="#ŃŚÁŻž_ŪŪŻť_ūŗšŤŚŪÚ_24"/><linearGradient id="ŃŚÁŻž_ŪŪŻť_ūŗšŤŚŪÚ_24-6" x1="3795.21" y1="396.55" x2="3913.03" y2="396.55" gradientTransform="translate(-2278.69)" xlink:href="#ŃŚÁŻž_ŪŪŻť_ūŗšŤŚŪÚ_24"/><linearGradient id="ŃŚÁŻž_ŪŪŻť_ūŗšŤŚŪÚ_2-10" x1="3834.79" y1="392.62" x2="3952.68" y2="392.62" gradientTransform="translate(-2278.69)" xlink:href="#ŃŚÁŻž_ŪŪŻť_ūŗšŤŚŪÚ_2"/><linearGradient id="ŃŚÁŻž_ŪŪŻť_ūŗšŤŚŪÚ_2-11" x1="3854.76" y1="399.31" x2="3884.93" y2="399.31" gradientTransform="translate(-2278.69)" xlink:href="#ŃŚÁŻž_ŪŪŻť_ūŗšŤŚŪÚ_2"/><clipPath id="clip-path"><polygon id="SVGID" class="cls-1" points="1578.69 305.92 1509.09 346.11 1517.72 397 1587.28 356.83 1578.69 305.92"/></clipPath><linearGradient id="ŃŚÁŻž_ŪŪŻť_ūŗšŤŚŪÚ_2-12" x1="3789.76" y1="366.49" x2="3907.64" y2="366.49" gradientTransform="translate(-2278.69)" xlink:href="#ŃŚÁŻž_ŪŪŻť_ūŗšŤŚŪÚ_2"/><linearGradient id="ŃŚÁŻž_ŪŪŻť_ūŗšŤŚŪÚ_2-13" x1="3782" y1="357.84" x2="3812.17" y2="357.84" gradientTransform="translate(-2278.69)" xlink:href="#ŃŚÁŻž_ŪŪŻť_ūŗšŤŚŪÚ_2"/><linearGradient id="ŃŚÁŻž_ŪŪŻť_ūŗšŤŚŪÚ_26" x1="1349.91" y1="403.9" x2="1460.97" y2="403.9" gradientUnits="userSpaceOnUse"><stop offset="0" stop-color="#5a64ad"/><stop offset="0.15" stop-color="#5f63ac"/><stop offset="0.32" stop-color="#6c5faa"/><stop offset="0.49" stop-color="#8258a6"/><stop offset="0.67" stop-color="#a14fa1"/><stop offset="0.86" stop-color="#c8449b"/><stop offset="1" stop-color="#ed3995"/></linearGradient><linearGradient id="ŃŚÁŻž_ŪŪŻť_ūŗšŤŚŪÚ_2-14" x1="510.94" y1="351.11" x2="594.36" y2="351.11" gradientTransform="matrix(-1, 0, 0, 1, 1986.04, 0)" xlink:href="#ŃŚÁŻž_ŪŪŻť_ūŗšŤŚŪÚ_2"/><linearGradient id="ŃŚÁŻž_ŪŪŻť_ūŗšŤŚŪÚ_24-7" x1="510.94" y1="372.5" x2="525.26" y2="372.5" gradientTransform="matrix(-1, 0, 0, 1, 1986.04, 0)" xlink:href="#ŃŚÁŻž_ŪŪŻť_ūŗšŤŚŪÚ_24"/><linearGradient id="ŃŚÁŻž_ŪŪŻť_ūŗšŤŚŪÚ_24-8" x1="522.11" y1="396.55" x2="639.93" y2="396.55" gradientTransform="matrix(-1, 0, 0, 1, 1986.04, 0)" xlink:href="#ŃŚÁŻž_ŪŪŻť_ūŗšŤŚŪÚ_24"/><linearGradient id="ŃŚÁŻž_ŪŪŻť_ūŗšŤŚŪÚ_2-15" x1="561.7" y1="392.62" x2="679.59" y2="392.62" gradientTransform="matrix(-1, 0, 0, 1, 1986.04, 0)" xlink:href="#ŃŚÁŻž_ŪŪŻť_ūŗšŤŚŪÚ_2"/><linearGradient id="ŃŚÁŻž_ŪŪŻť_ūŗšŤŚŪÚ_2-16" x1="581.66" y1="399.31" x2="611.84" y2="399.31" gradientTransform="matrix(-1, 0, 0, 1, 1986.04, 0)" xlink:href="#ŃŚÁŻž_ŪŪŻť_ūŗšŤŚŪÚ_2"/><clipPath id="clip-path-2"><polygon id="SVGID-2" data-name="SVGID" class="cls-1" points="1401.75 305.92 1471.36 346.11 1462.73 397 1393.16 356.83 1401.75 305.92"/></clipPath><linearGradient id="ŃŚÁŻž_ŪŪŻť_ūŗšŤŚŪÚ_2-17" x1="516.66" y1="366.49" x2="634.55" y2="366.49" gradientTransform="matrix(-1, 0, 0, 1, 1986.04, 0)" xlink:href="#ŃŚÁŻž_ŪŪŻť_ūŗšŤŚŪÚ_2"/><linearGradient id="ŃŚÁŻž_ŪŪŻť_ūŗšŤŚŪÚ_2-18" x1="508.9" y1="357.84" x2="539.08" y2="357.84" gradientTransform="matrix(-1, 0, 0, 1, 1986.04, 0)" xlink:href="#ŃŚÁŻž_ŪŪŻť_ūŗšŤŚŪÚ_2"/></defs><title>super-tlo</title><g class="cls-2"><g id="Warstwa_1" data-name="Warstwa 1"><rect class="cls-3" width="1920" height="600"/><path class="cls-4" d="M1724.5,50.69a6.42,6.42,0,0,0-5.85,0c-1.21.7-1.51,1.72-.9,2.59l-90.55,52.27v66l-22.06,12.74v71.78l-75.56,43.62-11.77-6.8,58.26-33.64V219.9l-.23-.14-66.25-38.24V168.17l37.47-21.63a6.53,6.53,0,0,0,5.34-.24c1.61-.93,1.61-2.44,0-3.38a6.48,6.48,0,0,0-5.85,0c-1.46.85-1.59,2.15-.42,3.09l-37.46,21.63v14.41l.23.13,66.25,38.25v38.28l-44,25.42v-16.4l20.19-11.65a6.5,6.5,0,0,0,5.33-.24c1.62-.93,1.62-2.44,0-3.37a6.4,6.4,0,0,0-5.84,0c-1.46.84-1.59,2.14-.42,3.08L1530.2,267.2v17.46l-13.32,7.69-15.74-9.09V254.71l29.69-17.15V217.83l-.24-.14-62.52-36.09c1.17-.93,1-2.24-.41-3.08a6.42,6.42,0,0,0-5.85,0c-1.62.93-1.62,2.44,0,3.37a6.53,6.53,0,0,0,5.34.24l62.75,36.23V237l-28.77,16.61V234l-.24-.13-38.25-22.08c1.17-.94,1-2.25-.41-3.09a6.48,6.48,0,0,0-5.85,0c-1.62.94-1.62,2.45,0,3.38a6.53,6.53,0,0,0,5.34.24l38.48,22.22v48.22l-11.06-6.38-18.22,10.52-16.51-9.53V254.18l-.23-.14-43.63-25.19V207a5.58,5.58,0,0,0,2.46-.67c1.62-.93,1.62-2.44,0-3.38a6.48,6.48,0,0,0-5.85,0c-1.61.94-1.61,2.45,0,3.38a5.63,5.63,0,0,0,2.47.67v22.37l.24.13,43.63,25.19V276.8l-71-41V192.34L1421,170.11h35.34l.11-.06,60.64-35a6.53,6.53,0,0,0,5.34-.24c1.62-.93,1.62-2.44,0-3.38a6.48,6.48,0,0,0-5.85,0c-1.45.84-1.58,2.15-.41,3.09l-60.07,34.68h-33.5L1534,104.86a6.57,6.57,0,0,0,5.34-.24c1.62-.94,1.62-2.45,0-3.38a6.48,6.48,0,0,0-5.85,0c-1.45.84-1.58,2.15-.41,3.08l-151.53,87.49v44.52l.23.14L1470,287.39l-17.75,10.26-150.6-87V158.81l-.23-.13-51.22-29.57c1.17-.93,1-2.24-.41-3.08a6.42,6.42,0,0,0-5.85,0c-1.62.93-1.62,2.44,0,3.37a6.53,6.53,0,0,0,5.34.24l51.44,29.71v51.88l.23.13,150.37,86.82-16.9,9.76-148.93-86h-88.82l-55.51-32V140.65a5.07,5.07,0,0,0,1.6-.57c1.62-.93,1.62-2.44,0-3.37a6.42,6.42,0,0,0-5.85,0c-1.61.93-1.61,2.44,0,3.37a6.08,6.08,0,0,0,3.32.68v49.68l.23.13,56,32.31h88.82L1411,295.46h-25.29l-42.9-24.77h-33.06l-.11.06-45.83,26.47a6.53,6.53,0,0,0-5.34.24c-1.62.93-1.62,2.44,0,3.37a6.4,6.4,0,0,0,5.84,0c1.46-.84,1.59-2.14.42-3.08L1310,271.62h32.56l42.91,24.77h27.14l20.92,12.08-45.11,26-12.83-7.41V307.67L1343,288.86c1.17-.94,1-2.24-.41-3.09a6.48,6.48,0,0,0-5.85,0c-1.62.94-1.62,2.45,0,3.38a6.53,6.53,0,0,0,5.34.24l32.59,18.82v18.37l-34.76-20.07h-16.46l-.1.06-19.62,11.33a6.57,6.57,0,0,0-5.34.24c-1.62.94-1.62,2.45,0,3.38a6.48,6.48,0,0,0,5.85,0c1.45-.84,1.58-2.15.41-3.08l19.05-11h16l47.83,27.61-8.69,5,27.73,16-13,7.5h-19.64l-14-8.11c1.12-.94,1-2.22-.46-3.05a6.48,6.48,0,0,0-5.85,0c-1.62.93-1.62,2.44,0,3.38a6.55,6.55,0,0,0,5.4.21l14.72,8.49h18.28l-33.12,19.12-77.91-45h-56.06l-.1.06-31.57,18.23a6.49,6.49,0,0,0-5.34.24c-1.61.93-1.61,2.44,0,3.37a6.48,6.48,0,0,0,5.85,0c1.46-.84,1.59-2.15.42-3.08l31-17.89h55.57l60.09,34.7H1315l-25.15-14.52c1.17-.93,1-2.24-.41-3.08a6.48,6.48,0,0,0-5.85,0c-1.62.93-1.62,2.44,0,3.38a6.57,6.57,0,0,0,5.34.24l25.82,14.9h27.57l15.54,9L1318.31,407H1191.9l-98.21-56.7c1.17-.93,1-2.24-.41-3.08a6.48,6.48,0,0,0-5.85,0c-1.62.93-1.62,2.44,0,3.38a6.57,6.57,0,0,0,5.34.24l98.88,57.09h125.06L1301,417h-93.58l-.1.06-46.15,26.64a6.57,6.57,0,0,0-5.34.24c-1.62.94-1.62,2.45,0,3.38a6.48,6.48,0,0,0,5.85,0c1.45-.84,1.58-2.15.41-3.08l45.58-26.32h93.58l.1-.06,106.05-61.22,11.77,6.79L1307.7,427.78h-81.53l-.11.06-98.49,56.87H991.13l-26.38-15.23v1.07l26.13,15.08h136.94l.11-.06,61.8-35.68V471L1149,494.53a6.53,6.53,0,0,0-5.34.24c-1.61.93-1.61,2.44,0,3.38a6.48,6.48,0,0,0,5.85,0c1.46-.85,1.59-2.15.42-3.09l40.74-23.52V449.47h-.21l36-20.76H1308l.11-.06L1420.12,364l13.37,7.72L1216.05,497.21v22.68h.93V497.74L1434.42,372.2l16.52,9.54L1338.78,446.5v11.58l-19.89,11.48v26.63l-38.56,22.26c-1.62-.67-.26-.3-1.71.54-.59.34-1.73.46-1.89.9h5.21a2.12,2.12,0,0,0-.69-.91l38.57-22.26V470.09l19-10.94v42.64l11.19,6.46-20.17,11.64h1.86l19.23-11.11,19.24,11.11H1372l-32.28-18.64V447l112.16-64.76,15,8.68-79.37,45.83a6.53,6.53,0,0,0-5.34.24c-1.62.93-1.62,2.44,0,3.38a6.46,6.46,0,0,0,5.84,0c1.46-.85,1.59-2.15.42-3.09l79.38-45.82,14.52,8.38-94.95,54.82H1361.6a2.38,2.38,0,0,0-1.13-1.23,6.48,6.48,0,0,0-5.85,0c-1.61.94-1.61,2.45,0,3.38a6.48,6.48,0,0,0,5.85,0,2.38,2.38,0,0,0,1.13-1.23h26.06l.1-.06,95.52-55.15,5.87,3.39,4.51-2.61,22.75,13.14v18.28l-18.8,10.85v0h-29.49l-.11.06-32.36,18.69a6.53,6.53,0,0,0-5.34.24c-1.61.93-1.61,2.44,0,3.37a6.42,6.42,0,0,0,5.85,0c1.46-.84,1.59-2.15.42-3.08l31.79-18.35h27.72l-55.25,31.9a6.48,6.48,0,0,0-5.45.18c-1.62.93-1.62,2.45,0,3.38a6.46,6.46,0,0,0,5.84,0c1.43-.82,1.59-2.09.51-3L1510.66,437v8.8l-41,23.67v16.72l-33.38,19.27a6.53,6.53,0,0,0-5.34.24c-1.62.93-1.62,2.44,0,3.38a6.46,6.46,0,0,0,5.84,0c1.46-.84,1.59-2.15.42-3.09l33.39-19.27V470l41-23.68v-9.86l5.74-3.32V413.79l-22.75-13.13,15-8.63,46.81,27v30.72l-31.78,18.35a6.54,6.54,0,0,0-5.46.19c-1.61.93-1.61,2.44,0,3.37a6.42,6.42,0,0,0,5.85,0c1.42-.82,1.59-2.08.51-3l30.88-17.83v24.82L1532,489.75v30.14h.93v-29.6l23.47-13.55v43.15h.93V418.52l-46.81-27,16.79-9.69,61.18,35.33v84.12l29.41,17v1.66h.93V517.7l-29.41-17V416.59l-61.18-35.32,12.44-7.19,82.57,47.68v71.77l45.65,26.36h1.85L1624.11,493V421.22l-82.57-47.67,20.16-11.64,137.38,79.31v35.72l47.08,27.18v-1.07L1700,476.41V440.69l-77.27-44.61h61.11l62.31,36V431l-62.06-35.84h-63l-58.5-33.78,23.44-13.53,50.28,29h80.75l29.06,16.78v-1.07l-6.37-3.68h6.37V388h-8l-20.84-12H1636.6l-14.07-8.12h34.33l.11-.07,17.22-9.94h71.74l.23.14V356.9h-70.37l19.38-11.19a6.53,6.53,0,0,0,5.34-.25c1.62-.93,1.62-2.44,0-3.37a6.48,6.48,0,0,0-5.85,0c-1.45.84-1.58,2.15-.41,3.08l-37.64,21.73h-35.68L1587,347.31l12.54-7.24-8.07-4.66h23.46l30.66,17.7c-1.17.94-1,2.24.42,3.08a6.42,6.42,0,0,0,5.85,0c1.61-.93,1.61-2.44,0-3.37a6.53,6.53,0,0,0-5.34-.24l-31.34-18.1h-25.31l-17.16-9.9,10.55-6.1H1602l16.46-9.5h12.28l27.74,16c-1.25.94-1.14,2.28.34,3.14a6.48,6.48,0,0,0,5.85,0c1.61-.93,1.61-2.45,0-3.38a6.59,6.59,0,0,0-5.25-.28L1631,308.06h-12.78l-16.46,9.5h-16.86l33.73-19.48h18.22l38,21.92h71.38v-.93H1675l-38-21.93h-18.71l-.11.06L1571.77,324l-12.19-7,52.51-30.31h37l30.55,17.64h66.49v-.93h-66.24l-29-16.71h95.19v-.93H1611.84l-.11.06-53.07,30.65-13.86-8L1618,266.2h128.14v-.93h-93.38l93.38-53.91v-1.07l-95.23,55h-32.24l69.42-40.08v-8.83l33.22-19.18a6.53,6.53,0,0,0,5.34-.24c1.62-.93,1.62-2.44,0-3.37a6.42,6.42,0,0,0-5.85,0c-1.45.84-1.59,2.14-.41,3.08l-18.09,10.44V182.88l43.84-25.31V156.5l-44.77,25.85v25.27l-14.2,8.21v8.83l-70,40.41.23.4-73.55,42.47-13.37-7.72,75.56-43.63V184.81l140.09-80.88v-1.07l-118,68.15V106.09l90.34-52.16c.06,0,.11.09.18.13a6.48,6.48,0,0,0,5.85,0C1726.12,53.13,1726.12,51.62,1724.5,50.69ZM1597.68,340.07l-108.53,62.66-108.53-62.66,108.53-62.66Z"/><path class="cls-5" d="M1746.16,163l-19.29,11.14V210L1555.48,309l-13-7.52,88.41-51v-9.13l15.67-9v-21l30.4-17.55a5.18,5.18,0,0,0,4.21-.19c1.27-.74,1.27-1.93,0-2.66a5.06,5.06,0,0,0-4.61,0c-1.15.66-1.26,1.69-.33,2.43l-30.4,17.55v21l-14.94,8.63V206.81l-.18-.1-8.64-5,51.82-29.92V138.15l36.82-21.26a5.14,5.14,0,0,0,4.21-.18c1.27-.74,1.27-1.93,0-2.67a5.13,5.13,0,0,0-4.61,0c-1.15.67-1.25,1.7-.33,2.43l-36.82,21.26v33.65l-51.82,29.92-84.26-48.65V115a4.34,4.34,0,0,0,1.94-.53c1.28-.73,1.28-1.92,0-2.66a5.13,5.13,0,0,0-4.61,0c-1.27.74-1.27,1.93,0,2.66a4.37,4.37,0,0,0,1.94.53v38.06l.18.11,50.68,29.26h-36.93L1520.4,165.2c.92-.74.82-1.77-.33-2.43a5.06,5.06,0,0,0-4.61,0,1.4,1.4,0,0,0,0,2.66,5.18,5.18,0,0,0,4.21.19l30.39,17.55h38.38l41.7,24.07V250l-88.41,51-11.85-6.85L1592.44,258a5.1,5.1,0,0,0,4.21-.19c1.27-.73,1.27-1.92,0-2.66a5.13,5.13,0,0,0-4.61,0c-1.15.66-1.25,1.7-.33,2.43l-62.56,36.12-11.45-6.61,74.84-43.2h20.34a1.83,1.83,0,0,0,.89,1,5.06,5.06,0,0,0,4.61,0c1.27-.73,1.27-1.92,0-2.66a5.13,5.13,0,0,0-4.61,0,1.85,1.85,0,0,0-.89,1h-20.54l-.08.05L1517,286.71l-4.62-2.66-.18.1-3.38,2-17.93-10.35V261.34l14.82-8.55v0h23.24l25.59-14.77a5.18,5.18,0,0,0,4.21-.19c1.28-.74,1.28-1.93,0-2.66a5.06,5.06,0,0,0-4.61,0c-1.14.66-1.25,1.69-.33,2.43l-25,14.46h-21.85L1550.42,227a5.12,5.12,0,0,0,4.3-.15c1.28-.73,1.28-1.92,0-2.66a5.13,5.13,0,0,0-4.61,0c-1.12.65-1.25,1.65-.4,2.38l-54.32,31.36V251l32.32-18.66V219.12L1554,203.93a5.18,5.18,0,0,0,4.21-.19c1.27-.74,1.27-1.93,0-2.67a5.13,5.13,0,0,0-4.61,0c-1.15.67-1.25,1.7-.33,2.43L1527,218.7v13.17l-32.32,18.66v7.77l-4.53,2.62v15.25l17.93,10.35-11.78,6.8-36.9-21.3V247.8l25-14.46a5.12,5.12,0,0,0,4.3-.15c1.27-.73,1.27-1.92,0-2.66a5.13,5.13,0,0,0-4.61,0c-1.12.65-1.25,1.65-.41,2.38L1459.39,247V227.4l19.23-11.1V179.5a4.69,4.69,0,0,0,1.94-.53c1.27-.74,1.27-1.93,0-2.67a5.13,5.13,0,0,0-4.61,0c-1.28.74-1.28,1.93,0,2.67a4.61,4.61,0,0,0,1.94.53v36.38l-18.5,10.68V161.67h-.73V272.44l36.9,21.3-13.23,7.64-48.22-27.84V207.23l-23.18-13.38V168.91l-20.47-11.82c.92-.73.82-1.76-.33-2.43a5.13,5.13,0,0,0-4.61,0c-1.27.74-1.27,1.93,0,2.66a5.1,5.1,0,0,0,4.21.19l20.47,11.82v24.94l23.18,13.38V274l48.22,27.84-9.81,5.67-65.08-37.58V213.32l-.18-.11L1348.91,180c.93-.73.82-1.76-.32-2.43a5.13,5.13,0,0,0-4.61,0c-1.28.74-1.28,1.93,0,2.66a5.08,5.08,0,0,0,4.2.19L1406,213.74v56.57l.18.11,64.9,37.47-15.89,9.17-108.28-62.51V226.4l-.18-.11L1256.05,174c.92-.73.82-1.76-.33-2.43a5.13,5.13,0,0,0-4.61,0c-1.27.74-1.27,1.93,0,2.67a5.14,5.14,0,0,0,4.21.18l90.83,52.45V255l.18.1,60.72,35.06h-48.16l-55.76-32.19c.92-.74.82-1.77-.33-2.43a5.13,5.13,0,0,0-4.61,0c-1.27.74-1.27,1.93,0,2.66a5.14,5.14,0,0,0,4.21.19l56.29,32.5h49.63l46.11,26.62L1436,328.15l-39.64-22.89h-63.64l-72.39-41.79h-40.15L1203.76,254c.93-.73.82-1.77-.32-2.43a5.13,5.13,0,0,0-4.61,0c-1.28.74-1.28,1.93,0,2.66a5.08,5.08,0,0,0,4.2.19l16.91,9.76h40.16l54.69,31.58h-47.24l-22.75-13.13c.92-.74.82-1.77-.33-2.43a5.06,5.06,0,0,0-4.61,0c-1.27.73-1.27,1.92,0,2.66a5.18,5.18,0,0,0,4.21.19l23.28,13.44h48.71l16.42,9.48h63.65l11.09,6.41h-27.06l-.08.05-13.58,7.83H1310l-16-9.21h-32a1.88,1.88,0,0,0-.89-1,5.06,5.06,0,0,0-4.61,0,1.4,1.4,0,0,0,0,2.66,5.06,5.06,0,0,0,4.61,0,1.86,1.86,0,0,0,.89-1h31.79l16,9.21h55.48L1350,329.83a5.18,5.18,0,0,0-4.21.19c-1.27.74-1.27,1.93,0,2.67a5.13,5.13,0,0,0,4.61,0c1.15-.67,1.25-1.7.33-2.43l29.67-17.13h28.12l26.75,15.44-9.89,5.71.55.31,5.81,3.36h-18.48L1389.05,324c.92-.74.82-1.77-.33-2.43a5.06,5.06,0,0,0-4.61,0c-1.27.73-1.27,1.92,0,2.66a5.18,5.18,0,0,0,4.21.19l24.7,14.26h20l13.52,7.81-8.31,4.8h-14.76l-.08,0-12.89,7.44h-9.68l-21.86-12.62c1-.74.9-1.8-.27-2.47a5.06,5.06,0,0,0-4.61,0c-1.27.73-1.27,1.92,0,2.66a5.15,5.15,0,0,0,4.13.22l22.41,12.94h10.08l.08-.05,12.89-7.44h13.29l-26.59,15.35H1396L1366,350.09h-90.26l-56-32.32c1-.74.89-1.79-.28-2.46a5.06,5.06,0,0,0-4.61,0,1.4,1.4,0,0,0,0,2.66,5.2,5.2,0,0,0,4.15.22l56.53,32.63h90.26l29.93,17.28h14.75l.08-.05,36.63-21.14,9.6,5.55-41.38,23.89h-29.19l-24.08-13.9h-61.8a1.92,1.92,0,0,0-.9-1,5.13,5.13,0,0,0-4.61,0c-1.27.74-1.27,1.93,0,2.66a5.06,5.06,0,0,0,4.61,0,1.83,1.83,0,0,0,.89-1H1362l22.82,13.17h-87.09l-.08,0-83,47.92a5.1,5.1,0,0,0-4.21.19c-1.27.73-1.27,1.92,0,2.66a5.13,5.13,0,0,0,4.61,0c1.15-.66,1.25-1.7.33-2.43l82.55-47.66h117.73l.09-.05,41.83-24.15,10.92,6.3-57.71,33.32H1309.16l-.09.05-89,51.37H1116.41L1056,409c.92-.73.82-1.76-.33-2.42a5.06,5.06,0,0,0-4.61,0c-1.27.73-1.27,1.92,0,2.66a5.18,5.18,0,0,0,4.21.19l61,35.21h104.07l.08,0,89-51.37h74L1274.68,456V472.5l-43.35,25a5.18,5.18,0,0,0-4.21.19,1.4,1.4,0,0,0,0,2.66,5.06,5.06,0,0,0,4.61,0c1.15-.66,1.25-1.69.33-2.43l43.35-25V456.4l109.42-63.17h25.41l-54.72,31.59v7l-26.18,15.12a5.16,5.16,0,0,0-4.2.19c-1.28.73-1.28,1.92,0,2.66a5.1,5.1,0,0,0,4.6,0c1.15-.66,1.26-1.69.33-2.43l14.26-8.23v19.08L1262,505.72a5.08,5.08,0,0,0-4.2.19c-1.28.73-1.28,1.92,0,2.66a5.13,5.13,0,0,0,4.61,0c1.14-.67,1.25-1.7.32-2.43l82.36-47.55V438.67l11.19-6.47v-7l55.17-31.85-.18-.31,58-33.48,10.54,6.09-59.56,34.38v56.58l-109.54,63.24h1.46l90.7-52.36V518.7l-2.06,1.19h1.46l1.33-.77v-52l17.38-10V400.5l59.56-34.39,9.28,5.36L1443.83,398v31l.19.1,52.21,30.15v10.51l-29.53,17.05a5.18,5.18,0,0,0-4.21.19c-1.27.74-1.27,1.93,0,2.66a5.06,5.06,0,0,0,4.61,0c1.15-.66,1.25-1.69.33-2.43l29.53-17V458.83l-.18-.11-52.22-30.15V398.4l34.7-20v12.92l-15.9,9.18a5.18,5.18,0,0,0-4.21.19c-1.27.74-1.27,1.93,0,2.67a5.13,5.13,0,0,0,4.61,0c1.15-.67,1.25-1.7.33-2.43l15.9-9.19V378l10.5-6.06,12.41,7.16v22.5l-23.41,13.52v15.56l.18.1L1529,459.18c-.92.74-.82,1.77.33,2.43a5.06,5.06,0,0,0,4.61,0,1.4,1.4,0,0,0,0-2.66,5.18,5.18,0,0,0-4.21-.19l-49.46-28.56V415.49l22.68-13.09v15.51l30.33,17.51c-.92.74-.82,1.77.33,2.43a5.13,5.13,0,0,0,4.61,0c1.27-.74,1.27-1.93,0-2.66A5.14,5.14,0,0,0,1534,435l-30.33-17.51v-38l8.72,5,.18-.11,14.18-8.18,13,7.51V402l34.57,20v17.2a4.61,4.61,0,0,0-1.94.53c-1.27.74-1.27,1.93,0,2.66a5.06,5.06,0,0,0,4.61,0c1.27-.73,1.27-1.92,0-2.66a4.61,4.61,0,0,0-1.94-.53V421.51l-34.57-20v-17.4l56,32.31v34.25l-30.36,17.53H1538.2l-.08.05-47.8,27.6a5.1,5.1,0,0,0-4.21.19c-1.27.73-1.27,1.92,0,2.66a5.13,5.13,0,0,0,4.61,0c1.15-.66,1.25-1.7.33-2.43L1538.4,469h26.4L1477,519.67a5.16,5.16,0,0,0-4.2.19l0,0h5.33l119.09-68.75V416l-.19-.11-69.52-40.14,14-8.07,118.7,68.53v40.89l40.55,23.41c-.92.74-.82,1.77.33,2.43a5.06,5.06,0,0,0,4.61,0c1.27-.73,1.27-1.92,0-2.66a5.18,5.18,0,0,0-4.21-.19l-40.55-23.41V435.83l-.18-.11-118.52-68.43,13.32-7.69,117.39,67.78h70l3.28,1.89v-.84l-3.09-1.78h-70L1574,369.43h19.93L1627.73,389h26l.08,0L1690,368.05a5.18,5.18,0,0,0,4.21-.19c1.27-.73,1.27-1.92,0-2.66a5.13,5.13,0,0,0-4.61,0c-1.15.66-1.25,1.69-.33,2.43l-35.68,20.6h-25.66L1594.1,368.7h-21.39l-16.5-9.52,35.56-20.53,10.11,5.84v15.32l25.69,14.83c-.92.74-.82,1.77.33,2.43a5.06,5.06,0,0,0,4.61,0,1.4,1.4,0,0,0,0-2.66,5.18,5.18,0,0,0-4.21-.19l-25.69-14.83V344.91l27.4,15.82h13l.08-.05,15.47-8.93a5.18,5.18,0,0,0,4.21-.19c1.27-.74,1.27-1.93,0-2.66a5.06,5.06,0,0,0-4.61,0c-1.15.66-1.26,1.69-.33,2.43l-15,8.67H1630.2l-37.7-21.77,6.85-4-.55-.32-21.3-12.3,10.23-5.91h15.48l11.07,6.39c-.88.74-.76,1.75.37,2.4a5.06,5.06,0,0,0,4.61,0c1.27-.73,1.27-1.92,0-2.66a5.18,5.18,0,0,0-4.26-.17L1603.4,315H1589l26.1-15.07,61.41,35.45h44.19l.08,0L1745.65,321c.16.07.51-.22-.73-.42l-24.43,14.1H1676.7l-47.36-27.34h20.27l19.81,11.44c-.92.74-.82,1.77.33,2.43a5.13,5.13,0,0,0,4.61,0c1.27-.74,1.27-1.93,0-2.66a5.18,5.18,0,0,0-4.21-.19L1649.8,306.6h-21.73l-12.25-7.07,31.18-18h99.16v-.73h-97.9l12.37-7.14h73.76l.08-.05,11.69-6.75V266l-12,6.92h-73.76l-.08.05-83.59,48.25-9.27-5.35,87.87-50.74h64.27l.08-.05,26.45-15.27V249l-26.73,15.43h-64.26l-.09,0-88.33,51-10.53-6.09,171.38-99V174.53l18.56-10.72ZM1597.89,334.28l-85.54,49.39-85.55-49.39,85.55-49.39Z"/><g class="cls-6"><polygon class="cls-7" points="1490.45 476.8 1270.63 349.88 1490.45 222.97 1710.27 349.89 1490.45 476.8"/></g><g class="cls-6"><polygon class="cls-7" points="1490.45 457.12 1304.72 349.89 1490.45 242.66 1676.18 349.89 1490.45 457.12"/></g><g class="cls-8"><polygon class="cls-7" points="1490.45 434.25 1344.33 349.89 1490.45 265.52 1636.57 349.89 1490.45 434.25"/></g><line class="cls-9" x1="1746.16" y1="103.33" x2="1921.24" y2="103.33"/><line class="cls-9" x1="1746.16" y1="157.11" x2="1921.24" y2="157.11"/><line class="cls-10" x1="1746.16" y1="210.84" x2="1921.24" y2="210.84"/><g class="cls-11"><rect class="cls-7" x="1746.16" y="265.26" width="175.08" height="0.91"/></g><g class="cls-11"><rect class="cls-7" x="1746.16" y="285.76" width="175.08" height="0.91"/></g><g class="cls-11"><rect class="cls-7" x="1746.16" y="303.41" width="175.08" height="0.91"/></g><g class="cls-11"><rect class="cls-7" x="1746.16" y="319.11" width="175.08" height="0.91"/></g><g class="cls-11"><rect class="cls-7" x="1746.16" y="356.93" width="175.08" height="0.91"/></g><g class="cls-11"><rect class="cls-7" x="1746.16" y="387.91" width="175.08" height="0.91"/></g><g class="cls-11"><rect class="cls-7" x="1746.16" y="392.69" width="175.08" height="0.91"/></g><g class="cls-11"><rect class="cls-7" x="1746.16" y="431.03" width="175.08" height="0.91"/></g><g class="cls-11"><rect class="cls-7" x="1746.16" y="503.09" width="175.08" height="0.91"/></g><g class="cls-12"><rect class="cls-7" x="1746.16" y="428.59" width="175.08" height="0.66"/></g><g class="cls-12"><rect class="cls-7" x="1744.66" y="320.58" width="175.08" height="0.66"/></g><g class="cls-12"><rect class="cls-7" x="1746.16" y="280.9" width="175.08" height="0.66"/></g><g class="cls-12"><rect class="cls-7" x="1746.16" y="266.17" width="175.08" height="0.66"/></g><g class="cls-12"><rect class="cls-7" x="1746.16" y="249.04" width="175.08" height="0.66"/></g><g class="cls-12"><rect class="cls-7" x="1746.16" y="163.02" width="175.08" height="0.66"/></g><ellipse class="cls-7" cx="1278.62" cy="519.89" rx="3.85" ry="2.37"/><ellipse class="cls-7" cx="1329.53" cy="519.89" rx="3.85" ry="2.37"/><ellipse class="cls-7" cx="1213.81" cy="519.89" rx="3.85" ry="2.37"/><ellipse class="cls-13" cx="963.85" cy="468.97" rx="3.85" ry="2.37"/><ellipse class="cls-7" cx="1371.2" cy="519.89" rx="3.85" ry="2.37"/><ellipse class="cls-7" cx="1533.21" cy="522.2" rx="3.85" ry="2.37"/><ellipse class="cls-7" cx="1556.35" cy="522.2" rx="3.85" ry="2.37"/><ellipse class="cls-7" cx="1616.53" cy="522.2" rx="3.85" ry="2.37"/><ellipse class="cls-7" cx="1669.76" cy="519.89" rx="3.85" ry="2.37"/><g class="cls-14"><path class="cls-15" d="M1390.15,344.82a6.36,6.36,0,0,1-3.2-.85l-36.9-21.3a1.87,1.87,0,0,1,0-3.22l66.75-38.53a.37.37,0,0,1,.38,0l.31.18,39.6,22.86a1.86,1.86,0,0,1,0,3.21L1393.35,344A6.38,6.38,0,0,1,1390.15,344.82ZM1417,281.66l-66.57,38.44a1.11,1.11,0,0,0,0,1.92l36.9,21.3a5.76,5.76,0,0,0,5.66,0l63.74-36.79a1.12,1.12,0,0,0,0-1.93Z"/></g><path class="cls-16" d="M1461.87,293.61l-3.87,2-38.83-22.42a2.86,2.86,0,0,0-2.54.11l-67,38.67c-.64-.36-3.57-1.77-3.57-1.77l1.42,3.7h0a.82.82,0,0,0,.39.44l40.9,23.61a2.82,2.82,0,0,0,2.54-.1l68.53-39.57a1.24,1.24,0,0,0,.58-.61h0Z"/><path class="cls-17" d="M1461.27,294.25,1391,334.8a2.92,2.92,0,0,1-2.6.11l-41.91-24.2c-.67-.39-.58-1.06.19-1.5L1417,268.66a2.84,2.84,0,0,1,2.59-.11l41.92,24.2C1462.12,293.13,1462,293.8,1461.27,294.25Z"/><path class="cls-18" d="M1461.27,293.84,1391,334.4a2.88,2.88,0,0,1-2.6.1l-41.91-24.2a.84.84,0,0,1-.41-.45.71.71,0,0,0,.41.86l41.91,24.2a2.92,2.92,0,0,0,2.6-.11l70.24-40.55c.52-.3.72-.7.59-1.05A1.19,1.19,0,0,1,1461.27,293.84Z"/><path class="cls-19" d="M1369.85,326v-.77c0-.07,0-.11.1-.08l2.71,1.57a.23.23,0,0,1,.1.19v.77c0,.07,0,.11-.1.08l-2.71-1.57A.23.23,0,0,1,1369.85,326Z"/><path class="cls-19" d="M1373.91,328.37v-.77c0-.07,0-.1.1-.07l2.71,1.57a.21.21,0,0,1,.1.19v.77c0,.07,0,.1-.1.07l-2.71-1.57A.21.21,0,0,1,1373.91,328.37Z"/><path class="cls-20" d="M1370.15,316.21l58.37-33.7a1.29,1.29,0,0,1,1.26,0l20.78,12a.44.44,0,0,1,0,.77L1392.22,329a1.29,1.29,0,0,1-1.26,0l-20.81-12A.45.45,0,0,1,1370.15,316.21Z"/><path class="cls-21" d="M1370.15,317l.21.12,58.16-33.58a1.24,1.24,0,0,1,1.26,0l20.57,11.9.21-.12a.44.44,0,0,0,0-.77l-20.78-12a1.29,1.29,0,0,0-1.26,0l-58.37,33.7A.45.45,0,0,0,1370.15,317Z"/><polygon class="cls-22" points="1431.35 285.56 1377.58 316.6 1374.91 315.53 1429.09 284.26 1431.35 285.56"/><polygon class="cls-22" points="1436.87 288.75 1389.32 316.2 1387.06 314.9 1434.62 287.45 1436.87 288.75"/><polygon class="cls-22" points="1440.47 290.83 1384.48 323.15 1382.23 321.85 1438.22 289.52 1440.47 290.83"/><polygon class="cls-22" points="1444.07 292.9 1388.08 325.23 1385.83 323.93 1441.82 291.6 1444.07 292.9"/><polygon class="cls-22" points="1447.67 294.98 1391.68 327.31 1389.42 326.01 1445.42 293.68 1447.67 294.98"/><polygon class="cls-22" points="1377.58 316.6 1375.33 317.9 1373.07 316.6 1375.33 315.3 1377.58 316.6"/><polygon class="cls-22" points="1392.05 314.63 1380.85 321.09 1378.6 319.79 1389.88 313.28 1392.05 314.63"/><path class="cls-23" d="M1390.93,301.11l15.74-9.09a.68.68,0,0,0,0-1.28l-10.76-6.22a2.5,2.5,0,0,0-2.23,0l-15.74,9.09a.68.68,0,0,0,0,1.28l10.76,6.22A2.5,2.5,0,0,0,1390.93,301.11Z"/><path class="cls-21" d="M1377.94,294.13l15.74-9.08a2.44,2.44,0,0,1,2.23,0l10.76,6.21a1,1,0,0,1,.39.38c.16-.31,0-.66-.39-.9l-10.76-6.22a2.5,2.5,0,0,0-2.23,0l-15.74,9.09c-.42.24-.55.59-.39.9A1.09,1.09,0,0,1,1377.94,294.13Z"/><path class="cls-24" d="M1461.76,292.57l-8.88-52.68.71-.3-1.07-.61h0a.75.75,0,0,0-.82.06l-71,41a2,2,0,0,0-.92,1.8l9,53.1a.69.69,0,0,0,.38.54h0l1,.61.18-1h-.06l70.53-40.72A2,2,0,0,0,1461.76,292.57Z"/><path class="cls-25" d="M1381.13,281.45l-1.17-.52a1.68,1.68,0,0,0-.15.88l9,53.1a.69.69,0,0,0,.38.54h0l1,.61.18-1h-.06l3.56-2.06Z"/><path class="cls-26" d="M1462,295l-71,41c-.55.32-1,.13-1.11-.43l-9-53.1a2,2,0,0,1,.92-1.8l71-41c.55-.32,1-.13,1.11.43l8.95,53.1A2,2,0,0,1,1462,295Z"/><g class="cls-14"><path class="cls-15" d="M1590.3,344.82a6.42,6.42,0,0,1-3.21-.85l-63.73-36.8a1.85,1.85,0,0,1,0-3.21l39.91-23a.35.35,0,0,1,.37,0l66.75,38.53a1.86,1.86,0,0,1,0,3.22L1593.5,344A6.41,6.41,0,0,1,1590.3,344.82Zm-26.84-63.16-.13.08-39.6,22.86a1.11,1.11,0,0,0,0,1.93l63.73,36.79h0a5.78,5.78,0,0,0,5.67,0L1630,322a1.1,1.1,0,0,0,0-1.92Z"/></g><path class="cls-27" d="M1518.58,293.61l3.87,2,38.83-22.42a2.83,2.83,0,0,1,2.53.11l67,38.67c.64-.36,3.56-1.77,3.56-1.77l-1.42,3.7h0a.84.84,0,0,1-.4.44L1591.63,338a2.8,2.8,0,0,1-2.53-.1l-68.54-39.57a1.26,1.26,0,0,1-.57-.61h0Z"/><path class="cls-28" d="M1519.17,294.25l70.24,40.55a2.92,2.92,0,0,0,2.6.11l41.92-24.2c.66-.39.58-1.06-.19-1.5l-70.24-40.55a2.86,2.86,0,0,0-2.6-.11L1519,292.75C1518.32,293.13,1518.41,293.8,1519.17,294.25Z"/><path class="cls-18" d="M1519.17,293.84l70.24,40.56a2.89,2.89,0,0,0,2.6.1l41.92-24.2a.85.85,0,0,0,.4-.45.7.7,0,0,1-.4.86L1592,334.91a2.92,2.92,0,0,1-2.6-.11l-70.24-40.55c-.51-.3-.71-.7-.59-1.05A1.23,1.23,0,0,0,1519.17,293.84Z"/><path class="cls-19" d="M1610.6,326v-.77c0-.07,0-.11-.1-.08l-2.72,1.57a.26.26,0,0,0-.1.19v.77c0,.07,0,.11.1.08l2.72-1.57A.23.23,0,0,0,1610.6,326Z"/><path class="cls-19" d="M1606.54,328.37v-.77c0-.07,0-.1-.1-.07l-2.72,1.57a.24.24,0,0,0-.1.19v.77c0,.07.05.1.1.07l2.72-1.57A.24.24,0,0,0,1606.54,328.37Z"/><path class="cls-20" d="M1610.29,316.21l-58.36-33.7a1.29,1.29,0,0,0-1.26,0l-20.79,12a.44.44,0,0,0,0,.77L1588.23,329a1.27,1.27,0,0,0,1.25,0l20.81-12A.45.45,0,0,0,1610.29,316.21Z"/><path class="cls-21" d="M1610.29,317l-.2.12-58.16-33.58a1.24,1.24,0,0,0-1.26,0l-20.58,11.9-.21-.12a.44.44,0,0,1,0-.77l20.79-12a1.29,1.29,0,0,1,1.26,0l58.36,33.7A.45.45,0,0,1,1610.29,317Z"/><polygon class="cls-22" points="1549.1 285.56 1602.87 316.6 1605.53 315.53 1551.35 284.26 1549.1 285.56"/><polygon class="cls-22" points="1543.57 288.75 1591.13 316.2 1593.38 314.9 1545.83 287.45 1543.57 288.75"/><polygon class="cls-22" points="1539.97 290.83 1595.96 323.15 1598.22 321.85 1542.23 289.52 1539.97 290.83"/><polygon class="cls-22" points="1536.37 292.9 1592.37 325.23 1594.62 323.93 1538.63 291.6 1536.37 292.9"/><polygon class="cls-22" points="1532.77 294.98 1588.77 327.31 1591.02 326.01 1535.03 293.68 1532.77 294.98"/><polygon class="cls-22" points="1602.87 316.6 1605.12 317.9 1607.37 316.6 1605.12 315.3 1602.87 316.6"/><polygon class="cls-22" points="1588.39 314.63 1599.59 321.09 1601.85 319.79 1590.57 313.28 1588.39 314.63"/><path class="cls-29" d="M1589.51,301.11,1573.78,292a.67.67,0,0,1,0-1.28l10.76-6.22a2.5,2.5,0,0,1,2.23,0l15.73,9.09a.67.67,0,0,1,0,1.28l-10.76,6.22A2.5,2.5,0,0,1,1589.51,301.11Z"/><path class="cls-21" d="M1602.5,294.13l-15.73-9.08a2.44,2.44,0,0,0-2.23,0l-10.76,6.21a1,1,0,0,0-.39.38c-.16-.31,0-.66.39-.9l10.76-6.22a2.5,2.5,0,0,1,2.23,0l15.73,9.09c.43.24.55.59.39.9A1,1,0,0,0,1602.5,294.13Z"/><path class="cls-30" d="M1518.69,292.57l8.88-52.68-.72-.3,1.08-.61h0a.77.77,0,0,1,.83.06l71,41a2,2,0,0,1,.92,1.8l-9,53.1a.66.66,0,0,1-.37.54h0l-1,.61-.18-1h.06l-70.53-40.72A2,2,0,0,1,1518.69,292.57Z"/><path class="cls-31" d="M1599.32,281.45l1.16-.52a1.58,1.58,0,0,1,.15.88l-9,53.1a.66.66,0,0,1-.37.54h0l-1,.61-.18-1h.06l-3.57-2.06Z"/><path class="cls-26" d="M1518.5,295l71,41c.54.32,1,.13,1.11-.43l9-53.1a2,2,0,0,0-.92-1.8l-71-41c-.55-.32-1-.13-1.12.43l-9,53.1A2,2,0,0,0,1518.5,295Z"/><polygon class="cls-32" points="1490.22 357.53 1424.15 319.38 1490.22 281.23 1556.3 319.38 1490.22 357.53"/><polygon class="cls-26" points="1490.22 347.11 1442.19 319.38 1490.22 291.65 1538.25 319.38 1490.22 347.11"/><polygon class="cls-18" points="1490.22 293.53 1536.63 320.32 1538.25 319.38 1490.22 291.65 1442.19 319.38 1443.82 320.32 1490.22 293.53"/><polygon class="cls-33" points="1556.3 319.38 1556.3 341 1490.22 379.15 1490.22 357.53 1556.3 319.38"/><polygon class="cls-22" points="1424.15 319.38 1424.15 341 1490.22 379.15 1490.22 357.53 1424.15 319.38"/><g class="cls-34"><polygon class="cls-26" points="1428.63 329.09 1428.63 335.9 1485.75 368.88 1485.75 362.07 1428.63 329.09"/></g><polygon class="cls-18" points="1490.22 356.29 1425.22 318.76 1424.15 319.38 1490.22 357.53 1556.3 319.38 1555.22 318.76 1490.22 356.29"/><polygon class="cls-26" points="1546.38 334.53 1546.38 338.4 1500.13 365.11 1500.13 361.23 1546.38 334.53"/><polygon class="cls-35" points="1424.15 319.38 1424.15 341 1490.22 379.15 1490.22 357.53 1424.15 319.38"/><polygon class="cls-15" points="1470.94 356.38 1458.97 349.47 1458.97 350.89 1470.93 357.8 1470.94 356.38"/><polygon class="cls-15" points="1457.25 348.49 1454 346.62 1454 348.04 1457.24 349.91 1457.25 348.49"/><polygon class="cls-15" points="1442.06 339.72 1435.43 335.89 1435.42 337.32 1442.06 341.15 1442.06 339.72"/><polygon class="cls-15" points="1448.11 343.22 1443.32 340.45 1443.31 341.87 1448.11 344.64 1448.11 343.22"/><polygon class="cls-15" points="1452.61 345.81 1449.37 343.94 1449.37 345.37 1452.61 347.24 1452.61 345.81"/><polygon class="cls-15" points="1490.29 301.17 1488.19 299.96 1490.29 298.75 1492.39 299.96 1490.29 301.17"/><polygon class="cls-36" points="1494.49 303.59 1492.39 302.38 1494.49 301.17 1496.59 302.38 1494.49 303.59"/><polygon class="cls-37" points="1498.68 306.01 1496.59 304.8 1498.68 303.59 1500.78 304.8 1498.68 306.01"/><polygon class="cls-15" points="1502.88 308.44 1500.78 307.23 1502.88 306.01 1504.98 307.23 1502.88 308.44"/><polygon class="cls-37" points="1507.08 310.86 1504.98 309.65 1507.08 308.44 1509.17 309.65 1507.08 310.86"/><polygon class="cls-15" points="1511.27 313.28 1509.17 312.07 1511.27 310.86 1513.37 312.07 1511.27 313.28"/><polygon class="cls-15" points="1515.47 315.71 1513.37 314.49 1515.47 313.28 1517.57 314.49 1515.47 315.71"/><polygon class="cls-15" points="1519.66 318.13 1517.57 316.92 1519.66 315.71 1521.76 316.92 1519.66 318.13"/><polygon class="cls-36" points="1523.86 320.55 1521.76 319.34 1523.86 318.13 1525.96 319.34 1523.86 320.55"/><polygon class="cls-15" points="1486.08 303.6 1483.98 302.39 1486.08 301.18 1488.18 302.39 1486.08 303.6"/><polygon class="cls-15" points="1490.27 306.02 1488.18 304.81 1490.27 303.6 1492.37 304.81 1490.27 306.02"/><polygon class="cls-15" points="1494.47 308.45 1492.37 307.24 1494.47 306.02 1496.57 307.24 1494.47 308.45"/><polygon class="cls-15" points="1498.67 310.87 1496.57 309.66 1498.67 308.45 1500.76 309.66 1498.67 310.87"/><polygon class="cls-15" points="1502.86 313.29 1500.76 312.08 1502.86 310.87 1504.96 312.08 1502.86 313.29"/><polygon class="cls-15" points="1507.06 315.71 1504.96 314.5 1507.06 313.29 1509.16 314.5 1507.06 315.71"/><polygon class="cls-15" points="1511.26 318.14 1509.16 316.93 1511.26 315.71 1513.35 316.93 1511.26 318.14"/><polygon class="cls-15" points="1515.45 320.56 1513.35 319.35 1515.45 318.14 1517.55 319.35 1515.45 320.56"/><polygon class="cls-15" points="1519.65 322.98 1517.55 321.77 1519.65 320.56 1521.74 321.77 1519.65 322.98"/><polygon class="cls-15" points="1481.86 306.03 1479.77 304.82 1481.86 303.61 1483.96 304.82 1481.86 306.03"/><polygon class="cls-15" points="1486.06 308.46 1483.96 307.25 1486.06 306.03 1488.16 307.25 1486.06 308.46"/><polygon class="cls-15" points="1490.26 310.88 1488.16 309.67 1490.26 308.46 1492.36 309.67 1490.26 310.88"/><polygon class="cls-36" points="1494.45 313.3 1492.36 312.09 1494.45 310.88 1496.55 312.09 1494.45 313.3"/><polygon class="cls-37" points="1498.65 315.73 1496.55 314.51 1498.65 313.3 1500.75 314.51 1498.65 315.73"/><polygon class="cls-37" points="1502.85 318.15 1500.75 316.94 1502.85 315.73 1504.94 316.94 1502.85 318.15"/><polygon class="cls-15" points="1507.04 320.57 1504.94 319.36 1507.04 318.15 1509.14 319.36 1507.04 320.57"/><polygon class="cls-15" points="1511.24 322.99 1509.14 321.78 1511.24 320.57 1513.34 321.78 1511.24 322.99"/><polygon class="cls-15" points="1515.43 325.42 1513.34 324.2 1515.43 322.99 1517.53 324.2 1515.43 325.42"/><polygon class="cls-37" points="1477.65 308.47 1475.55 307.26 1477.65 306.04 1479.75 307.26 1477.65 308.47"/><polygon class="cls-37" points="1481.85 310.89 1479.75 309.68 1481.85 308.47 1483.94 309.68 1481.85 310.89"/><polygon class="cls-36" points="1486.04 313.31 1483.94 312.1 1486.04 310.89 1488.14 312.1 1486.04 313.31"/><polygon class="cls-15" points="1490.24 315.74 1488.14 314.52 1490.24 313.31 1492.34 314.52 1490.24 315.74"/><polygon class="cls-15" points="1494.44 318.16 1492.34 316.95 1494.44 315.74 1496.53 316.95 1494.44 318.16"/><polygon class="cls-15" points="1498.63 320.58 1496.53 319.37 1498.63 318.16 1500.73 319.37 1498.63 320.58"/><polygon class="cls-37" points="1502.83 323 1500.73 321.79 1502.83 320.58 1504.93 321.79 1502.83 323"/><polygon class="cls-15" points="1507.02 325.43 1504.93 324.21 1507.02 323 1509.12 324.21 1507.02 325.43"/><polygon class="cls-15" points="1511.22 327.85 1509.12 326.64 1511.22 325.43 1513.32 326.64 1511.22 327.85"/><polygon class="cls-15" points="1473.44 310.9 1471.34 309.69 1473.44 308.48 1475.54 309.69 1473.44 310.9"/><polygon class="cls-15" points="1477.63 313.32 1475.54 312.11 1477.63 310.9 1479.73 312.11 1477.63 313.32"/><polygon class="cls-15" points="1481.83 315.75 1479.73 314.53 1481.83 313.32 1483.93 314.53 1481.83 315.75"/><polygon class="cls-15" points="1486.03 318.17 1483.93 316.96 1486.03 315.75 1488.13 316.96 1486.03 318.17"/><polygon class="cls-15" points="1490.22 320.59 1488.13 319.38 1490.22 318.17 1492.32 319.38 1490.22 320.59"/><polygon class="cls-15" points="1494.42 323.01 1492.32 321.8 1494.42 320.59 1496.52 321.8 1494.42 323.01"/><polygon class="cls-15" points="1498.62 325.44 1496.52 324.22 1498.62 323.01 1500.71 324.22 1498.62 325.44"/><polygon class="cls-15" points="1502.81 327.86 1500.71 326.65 1502.81 325.44 1504.91 326.65 1502.81 327.86"/><polygon class="cls-15" points="1507.01 330.28 1504.91 329.07 1507.01 327.86 1509.11 329.07 1507.01 330.28"/><polygon class="cls-15" points="1469.22 313.33 1467.13 312.12 1469.22 310.91 1471.32 312.12 1469.22 313.33"/><polygon class="cls-15" points="1473.42 315.75 1471.32 314.54 1473.42 313.33 1475.52 314.54 1473.42 315.75"/><polygon class="cls-37" points="1477.62 318.18 1475.52 316.97 1477.62 315.75 1479.71 316.97 1477.62 318.18"/><polygon class="cls-15" points="1481.81 320.6 1479.71 319.39 1481.81 318.18 1483.91 319.39 1481.81 320.6"/><polygon class="cls-36" points="1486.01 323.02 1483.91 321.81 1486.01 320.6 1488.11 321.81 1486.01 323.02"/><polygon class="cls-15" points="1490.21 325.44 1488.11 324.23 1490.21 323.02 1492.3 324.23 1490.21 325.44"/><polygon class="cls-15" points="1494.4 327.87 1492.3 326.66 1494.4 325.44 1496.5 326.66 1494.4 327.87"/><polygon class="cls-15" points="1498.6 330.29 1496.5 329.08 1498.6 327.87 1500.7 329.08 1498.6 330.29"/><polygon class="cls-15" points="1502.79 332.71 1500.7 331.5 1502.79 330.29 1504.89 331.5 1502.79 332.71"/><polygon class="cls-15" points="1465.01 315.76 1462.91 314.55 1465.01 313.34 1467.11 314.55 1465.01 315.76"/><polygon class="cls-15" points="1469.21 318.19 1467.11 316.98 1469.21 315.76 1471.31 316.98 1469.21 318.19"/><polygon class="cls-37" points="1473.4 320.61 1471.31 319.4 1473.4 318.19 1475.5 319.4 1473.4 320.61"/><polygon class="cls-15" points="1477.6 323.03 1475.5 321.82 1477.6 320.61 1479.7 321.82 1477.6 323.03"/><polygon class="cls-15" points="1481.8 325.45 1479.7 324.24 1481.8 323.03 1483.89 324.24 1481.8 325.45"/><polygon class="cls-36" points="1485.99 327.88 1483.89 326.67 1485.99 325.45 1488.09 326.67 1485.99 327.88"/><polygon class="cls-37" points="1490.19 330.3 1488.09 329.09 1490.19 327.88 1492.29 329.09 1490.19 330.3"/><polygon class="cls-15" points="1494.38 332.72 1492.29 331.51 1494.38 330.3 1496.48 331.51 1494.38 332.72"/><polygon class="cls-36" points="1498.58 335.15 1496.48 333.93 1498.58 332.72 1500.68 333.93 1498.58 335.15"/><polygon class="cls-15" points="1460.8 318.2 1458.7 316.99 1460.8 315.77 1462.9 316.99 1460.8 318.2"/><polygon class="cls-37" points="1464.99 320.62 1462.9 319.41 1464.99 318.2 1467.09 319.41 1464.99 320.62"/><polygon class="cls-15" points="1469.19 323.04 1467.09 321.83 1469.19 320.62 1471.29 321.83 1469.19 323.04"/><polygon class="cls-15" points="1473.39 325.46 1471.29 324.25 1473.39 323.04 1475.48 324.25 1473.39 325.46"/><polygon class="cls-15" points="1477.58 327.89 1475.48 326.68 1477.58 325.46 1479.68 326.68 1477.58 327.89"/><polygon class="cls-15" points="1481.78 330.31 1479.68 329.1 1481.78 327.89 1483.88 329.1 1481.78 330.31"/><polygon class="cls-15" points="1485.98 332.73 1483.88 331.52 1485.98 330.31 1488.07 331.52 1485.98 332.73"/><polygon class="cls-37" points="1490.17 335.16 1488.07 333.94 1490.17 332.73 1492.27 333.94 1490.17 335.16"/><polygon class="cls-15" points="1494.37 337.58 1492.27 336.37 1494.37 335.16 1496.47 336.37 1494.37 337.58"/><polygon class="cls-15" points="1456.59 320.63 1454.49 319.42 1456.59 318.21 1458.68 319.42 1456.59 320.63"/><polygon class="cls-36" points="1460.78 323.05 1458.68 321.84 1460.78 320.63 1462.88 321.84 1460.78 323.05"/><polygon class="cls-15" points="1464.98 325.48 1462.88 324.26 1464.98 323.05 1467.08 324.26 1464.98 325.48"/><polygon class="cls-15" points="1469.17 327.9 1467.08 326.69 1469.17 325.48 1471.27 326.69 1469.17 327.9"/><polygon class="cls-15" points="1473.37 330.32 1471.27 329.11 1473.37 327.9 1475.47 329.11 1473.37 330.32"/><polygon class="cls-15" points="1477.57 332.74 1475.47 331.53 1477.57 330.32 1479.66 331.53 1477.57 332.74"/><polygon class="cls-37" points="1481.76 335.17 1479.66 333.95 1481.76 332.74 1483.86 333.95 1481.76 335.17"/><polygon class="cls-15" points="1485.96 337.59 1483.86 336.38 1485.96 335.17 1488.06 336.38 1485.96 337.59"/><polygon class="cls-15" points="1490.15 340.01 1488.06 338.8 1490.15 337.59 1492.25 338.8 1490.15 340.01"/><polygon class="cls-32" points="1490.22 320.09 1424.15 281.94 1490.22 243.79 1556.3 281.94 1490.22 320.09"/><polygon class="cls-26" points="1490.22 309.67 1442.19 281.94 1490.22 254.21 1538.25 281.94 1490.22 309.67"/><polygon class="cls-18" points="1490.22 256.09 1536.63 282.88 1538.25 281.94 1490.22 254.21 1442.19 281.94 1443.82 282.88 1490.22 256.09"/><polygon class="cls-38" points="1556.3 281.94 1556.3 303.56 1490.22 341.71 1490.22 320.09 1556.3 281.94"/><polygon class="cls-22" points="1424.15 281.94 1424.15 303.56 1490.22 341.71 1490.22 320.09 1424.15 281.94"/><g class="cls-34"><polygon class="cls-26" points="1428.63 291.65 1428.63 298.46 1485.75 331.44 1485.75 324.63 1428.63 291.65"/></g><polygon class="cls-18" points="1490.22 318.85 1425.22 281.32 1424.15 281.94 1490.22 320.09 1556.3 281.94 1555.22 281.32 1490.22 318.85"/><polygon class="cls-26" points="1546.38 297.09 1546.38 300.96 1500.13 327.67 1500.13 323.8 1546.38 297.09"/><polygon class="cls-35" points="1424.15 281.94 1424.15 303.56 1490.22 341.71 1490.22 320.09 1424.15 281.94"/><polygon class="cls-15" points="1470.94 318.94 1458.97 312.03 1458.97 313.46 1470.93 320.37 1470.94 318.94"/><polygon class="cls-15" points="1457.25 311.05 1454 309.18 1454 310.6 1457.24 312.48 1457.25 311.05"/><polygon class="cls-15" points="1442.06 302.28 1435.43 298.45 1435.42 299.88 1442.06 303.71 1442.06 302.28"/><polygon class="cls-15" points="1448.11 305.78 1443.32 303.01 1443.31 304.43 1448.11 307.2 1448.11 305.78"/><polygon class="cls-15" points="1452.61 308.37 1449.37 306.5 1449.37 307.93 1452.61 309.8 1452.61 308.37"/><polygon class="cls-15" points="1490.29 263.73 1488.19 262.52 1490.29 261.31 1492.39 262.52 1490.29 263.73"/><polygon class="cls-36" points="1494.49 266.15 1492.39 264.94 1494.49 263.73 1496.59 264.94 1494.49 266.15"/><polygon class="cls-37" points="1498.68 268.58 1496.59 267.36 1498.68 266.15 1500.78 267.37 1498.68 268.58"/><polygon class="cls-15" points="1502.88 271 1500.78 269.79 1502.88 268.58 1504.98 269.79 1502.88 271"/><polygon class="cls-37" points="1507.08 273.42 1504.98 272.21 1507.08 271 1509.17 272.21 1507.08 273.42"/><polygon class="cls-15" points="1511.27 275.84 1509.17 274.63 1511.27 273.42 1513.37 274.63 1511.27 275.84"/><polygon class="cls-15" points="1515.47 278.27 1513.37 277.06 1515.47 275.84 1517.57 277.06 1515.47 278.27"/><polygon class="cls-15" points="1519.66 280.69 1517.57 279.48 1519.66 278.27 1521.76 279.48 1519.66 280.69"/><polygon class="cls-36" points="1523.86 283.11 1521.76 281.9 1523.86 280.69 1525.96 281.9 1523.86 283.11"/><polygon class="cls-15" points="1486.08 266.16 1483.98 264.95 1486.08 263.74 1488.18 264.95 1486.08 266.16"/><polygon class="cls-15" points="1490.27 268.59 1488.18 267.37 1490.27 266.16 1492.37 267.37 1490.27 268.59"/><polygon class="cls-15" points="1494.47 271.01 1492.37 269.8 1494.47 268.59 1496.57 269.8 1494.47 271.01"/><polygon class="cls-39" points="1498.67 273.43 1496.57 272.22 1498.67 271.01 1500.76 272.22 1498.67 273.43"/><polygon class="cls-15" points="1502.86 275.85 1500.76 274.64 1502.86 273.43 1504.96 274.64 1502.86 275.85"/><polygon class="cls-15" points="1507.06 278.28 1504.96 277.06 1507.06 275.85 1509.16 277.06 1507.06 278.28"/><polygon class="cls-40" points="1511.26 280.7 1509.16 279.49 1511.26 278.28 1513.35 279.49 1511.26 280.7"/><polygon class="cls-15" points="1515.45 283.12 1513.35 281.91 1515.45 280.7 1517.55 281.91 1515.45 283.12"/><polygon class="cls-39" points="1519.65 285.54 1517.55 284.33 1519.65 283.12 1521.74 284.33 1519.65 285.54"/><polygon class="cls-15" points="1481.86 268.6 1479.77 267.38 1481.86 266.17 1483.96 267.38 1481.86 268.6"/><polygon class="cls-39" points="1486.06 271.02 1483.96 269.81 1486.06 268.6 1488.16 269.81 1486.06 271.02"/><polygon class="cls-15" points="1490.26 273.44 1488.16 272.23 1490.26 271.02 1492.36 272.23 1490.26 273.44"/><polygon class="cls-36" points="1494.45 275.86 1492.36 274.65 1494.45 273.44 1496.55 274.65 1494.45 275.86"/><polygon class="cls-37" points="1498.65 278.29 1496.55 277.07 1498.65 275.86 1500.75 277.07 1498.65 278.29"/><polygon class="cls-37" points="1502.85 280.71 1500.75 279.5 1502.85 278.29 1504.94 279.5 1502.85 280.71"/><polygon class="cls-15" points="1507.04 283.13 1504.94 281.92 1507.04 280.71 1509.14 281.92 1507.04 283.13"/><polygon class="cls-15" points="1511.24 285.55 1509.14 284.34 1511.24 283.13 1513.34 284.34 1511.24 285.55"/><polygon class="cls-15" points="1515.43 287.98 1513.34 286.76 1515.43 285.55 1517.53 286.76 1515.43 287.98"/><polygon class="cls-37" points="1477.65 271.03 1475.55 269.82 1477.65 268.61 1479.75 269.82 1477.65 271.03"/><polygon class="cls-37" points="1481.85 273.45 1479.75 272.24 1481.85 271.03 1483.94 272.24 1481.85 273.45"/><polygon class="cls-36" points="1486.04 275.87 1483.94 274.66 1486.04 273.45 1488.14 274.66 1486.04 275.87"/><polygon class="cls-15" points="1490.24 278.3 1488.14 277.08 1490.24 275.87 1492.34 277.08 1490.24 278.3"/><polygon class="cls-15" points="1494.44 280.72 1492.34 279.51 1494.44 278.3 1496.53 279.51 1494.44 280.72"/><polygon class="cls-39" points="1498.63 283.14 1496.53 281.93 1498.63 280.72 1500.73 281.93 1498.63 283.14"/><polygon class="cls-37" points="1502.83 285.56 1500.73 284.35 1502.83 283.14 1504.93 284.35 1502.83 285.56"/><polygon class="cls-15" points="1507.02 287.99 1504.93 286.77 1507.02 285.56 1509.12 286.77 1507.02 287.99"/><polygon class="cls-15" points="1511.22 290.41 1509.12 289.2 1511.22 287.99 1513.32 289.2 1511.22 290.41"/><polygon class="cls-39" points="1473.44 273.46 1471.34 272.25 1473.44 271.04 1475.54 272.25 1473.44 273.46"/><polygon class="cls-15" points="1477.63 275.88 1475.54 274.67 1477.63 273.46 1479.73 274.67 1477.63 275.88"/><polygon class="cls-15" points="1481.83 278.31 1479.73 277.09 1481.83 275.88 1483.93 277.09 1481.83 278.31"/><polygon class="cls-15" points="1486.03 280.73 1483.93 279.52 1486.03 278.31 1488.13 279.52 1486.03 280.73"/><polygon class="cls-39" points="1490.22 283.15 1488.13 281.94 1490.22 280.73 1492.32 281.94 1490.22 283.15"/><polygon class="cls-39" points="1494.42 285.57 1492.32 284.36 1494.42 283.15 1496.52 284.36 1494.42 285.57"/><polygon class="cls-15" points="1498.62 288 1496.52 286.79 1498.62 285.57 1500.71 286.79 1498.62 288"/><polygon class="cls-15" points="1502.81 290.42 1500.71 289.21 1502.81 288 1504.91 289.21 1502.81 290.42"/><polygon class="cls-15" points="1507.01 292.84 1504.91 291.63 1507.01 290.42 1509.11 291.63 1507.01 292.84"/><polygon class="cls-15" points="1469.22 275.89 1467.13 274.68 1469.22 273.47 1471.32 274.68 1469.22 275.89"/><polygon class="cls-15" points="1473.42 278.31 1471.32 277.1 1473.42 275.89 1475.52 277.1 1473.42 278.31"/><polygon class="cls-37" points="1477.62 280.74 1475.52 279.53 1477.62 278.32 1479.71 279.53 1477.62 280.74"/><polygon class="cls-39" points="1481.81 283.16 1479.71 281.95 1481.81 280.74 1483.91 281.95 1481.81 283.16"/><polygon class="cls-36" points="1486.01 285.58 1483.91 284.37 1486.01 283.16 1488.11 284.37 1486.01 285.58"/><polygon class="cls-15" points="1490.21 288.01 1488.11 286.8 1490.21 285.58 1492.3 286.8 1490.21 288.01"/><polygon class="cls-15" points="1494.4 290.43 1492.3 289.22 1494.4 288.01 1496.5 289.22 1494.4 290.43"/><polygon class="cls-39" points="1498.6 292.85 1496.5 291.64 1498.6 290.43 1500.7 291.64 1498.6 292.85"/><polygon class="cls-15" points="1502.79 295.27 1500.7 294.06 1502.79 292.85 1504.89 294.06 1502.79 295.27"/><polygon class="cls-15" points="1465.01 278.32 1462.91 277.11 1465.01 275.9 1467.11 277.11 1465.01 278.32"/><polygon class="cls-15" points="1469.21 280.75 1467.11 279.54 1469.21 278.32 1471.31 279.54 1469.21 280.75"/><polygon class="cls-37" points="1473.4 283.17 1471.31 281.96 1473.4 280.75 1475.5 281.96 1473.4 283.17"/><polygon class="cls-15" points="1477.6 285.59 1475.5 284.38 1477.6 283.17 1479.7 284.38 1477.6 285.59"/><polygon class="cls-15" points="1481.8 288.02 1479.7 286.81 1481.8 285.59 1483.89 286.81 1481.8 288.02"/><polygon class="cls-36" points="1485.99 290.44 1483.89 289.23 1485.99 288.02 1488.09 289.23 1485.99 290.44"/><polygon class="cls-37" points="1490.19 292.86 1488.09 291.65 1490.19 290.44 1492.29 291.65 1490.19 292.86"/><polygon class="cls-15" points="1494.38 295.28 1492.29 294.07 1494.38 292.86 1496.48 294.07 1494.38 295.28"/><polygon class="cls-36" points="1498.58 297.71 1496.48 296.5 1498.58 295.28 1500.68 296.5 1498.58 297.71"/><polygon class="cls-15" points="1460.8 280.76 1458.7 279.55 1460.8 278.33 1462.9 279.55 1460.8 280.76"/><polygon class="cls-37" points="1464.99 283.18 1462.9 281.97 1464.99 280.76 1467.09 281.97 1464.99 283.18"/><polygon class="cls-15" points="1469.19 285.6 1467.09 284.39 1469.19 283.18 1471.29 284.39 1469.19 285.6"/><polygon class="cls-15" points="1473.39 288.03 1471.29 286.81 1473.39 285.6 1475.48 286.81 1473.39 288.03"/><polygon class="cls-15" points="1477.58 290.45 1475.48 289.24 1477.58 288.03 1479.68 289.24 1477.58 290.45"/><polygon class="cls-15" points="1481.78 292.87 1479.68 291.66 1481.78 290.45 1483.88 291.66 1481.78 292.87"/><polygon class="cls-15" points="1485.98 295.29 1483.88 294.08 1485.98 292.87 1488.07 294.08 1485.98 295.29"/><polygon class="cls-37" points="1490.17 297.72 1488.07 296.5 1490.17 295.29 1492.27 296.5 1490.17 297.72"/><polygon class="cls-15" points="1494.37 300.14 1492.27 298.93 1494.37 297.72 1496.47 298.93 1494.37 300.14"/><polygon class="cls-15" points="1456.59 283.19 1454.49 281.98 1456.59 280.77 1458.68 281.98 1456.59 283.19"/><polygon class="cls-36" points="1460.78 285.61 1458.68 284.4 1460.78 283.19 1462.88 284.4 1460.78 285.61"/><polygon class="cls-39" points="1464.98 288.04 1462.88 286.82 1464.98 285.61 1467.08 286.82 1464.98 288.04"/><polygon class="cls-15" points="1469.17 290.46 1467.08 289.25 1469.17 288.04 1471.27 289.25 1469.17 290.46"/><polygon class="cls-15" points="1473.37 292.88 1471.27 291.67 1473.37 290.46 1475.47 291.67 1473.37 292.88"/><polygon class="cls-15" points="1477.57 295.3 1475.47 294.09 1477.57 292.88 1479.66 294.09 1477.57 295.3"/><polygon class="cls-37" points="1481.76 297.73 1479.66 296.51 1481.76 295.3 1483.86 296.51 1481.76 297.73"/><polygon class="cls-39" points="1485.96 300.15 1483.86 298.94 1485.96 297.73 1488.06 298.94 1485.96 300.15"/><polygon class="cls-15" points="1490.15 302.57 1488.06 301.36 1490.15 300.15 1492.25 301.36 1490.15 302.57"/><g class="cls-14"><path class="cls-15" d="M1561.35,436.47a6.52,6.52,0,0,1-3.26-.87l-37.54-21.68a1.87,1.87,0,0,1,0-3.25l67.93-39.22a.35.35,0,0,1,.37,0l40.62,23.45a1.88,1.88,0,0,1,0,3.25l-64.86,37.45A6.55,6.55,0,0,1,1561.35,436.47Zm27.31-64.27-67.74,39.11a1.12,1.12,0,0,0-.57,1,1.11,1.11,0,0,0,.57,1L1558.46,435a5.89,5.89,0,0,0,5.78,0l64.85-37.45a1.14,1.14,0,0,0,0-2Z"/></g><path class="cls-41" d="M1588.75,356.29l-9-53.6.73-.31-1.09-.63h0a.79.79,0,0,0-.84.06l-72.22,41.69a2.06,2.06,0,0,0-.94,1.84l9.11,54a.69.69,0,0,0,.38.55h0l1.07.62.18-1-.06,0,71.78-41.44A2.06,2.06,0,0,0,1588.75,356.29Z"/><path class="cls-42" d="M1506.69,345l-1.18-.53a1.66,1.66,0,0,0-.16.9l9.11,54a.69.69,0,0,0,.38.55h0l1.07.62.18-1-.06,0,3.63-2.1Z"/><path class="cls-22" d="M1588.94,358.78l-72.21,41.69c-.56.32-1,.14-1.14-.44l-9.1-54a2,2,0,0,1,.93-1.84l72.22-41.69c.56-.32,1-.14,1.13.44l9.11,54A2,2,0,0,1,1588.94,358.78Z"/><g class="cls-34"><polygon class="cls-26" points="1578.69 305.92 1509.09 346.11 1517.72 397 1587.28 356.83 1578.69 305.92"/></g><path class="cls-43" d="M1634.34,384.36l-3.94,2.06-39.52-22.82a2.88,2.88,0,0,0-2.58.11l-68.16,39.35c-.65-.36-3.62-1.79-3.62-1.79L1518,405h0a.87.87,0,0,0,.41.45l41.62,24a2.88,2.88,0,0,0,2.58-.11l69.74-40.27a1.23,1.23,0,0,0,.59-.62h0Z"/><path class="cls-44" d="M1633.73,385l-71.48,41.27a3,3,0,0,1-2.65.11L1517,401.76c-.68-.39-.6-1.07.19-1.52L1588.62,359a2.88,2.88,0,0,1,2.64-.11l42.66,24.62C1634.6,383.87,1634.51,384.56,1633.73,385Z"/><path class="cls-18" d="M1633.73,384.6l-71.48,41.27a3,3,0,0,1-2.65.11L1517,401.35a.91.91,0,0,1-.42-.46.72.72,0,0,0,.42.87l42.65,24.63a3,3,0,0,0,2.65-.11L1633.73,385c.52-.3.73-.71.6-1.07A1.24,1.24,0,0,1,1633.73,384.6Z"/><path class="cls-19" d="M1540.69,417.35v-.78c0-.08,0-.11.1-.08l2.76,1.6a.23.23,0,0,1,.1.19v.78c0,.08,0,.11-.1.08l-2.76-1.6A.21.21,0,0,1,1540.69,417.35Z"/><path class="cls-19" d="M1544.82,419.74V419c0-.07,0-.1.1-.07l2.77,1.59a.28.28,0,0,1,.1.2v.78c0,.08,0,.11-.1.08l-2.77-1.6A.26.26,0,0,1,1544.82,419.74Z"/><path class="cls-20" d="M1528.07,399.46l59.4-34.3a1.27,1.27,0,0,1,1.28,0l21.15,12.24a.46.46,0,0,1,0,.79l-59.37,34.28a1.27,1.27,0,0,1-1.28,0l-21.18-12.23A.44.44,0,0,1,1528.07,399.46Z"/><path class="cls-21" d="M1528.07,400.24l.21.13,59.19-34.17a1.27,1.27,0,0,1,1.28,0l20.94,12.11.21-.12a.46.46,0,0,0,0-.79l-21.15-12.24a1.27,1.27,0,0,0-1.28,0l-59.4,34.3A.44.44,0,0,0,1528.07,400.24Z"/><polygon class="cls-22" points="1590.35 368.26 1538.75 398.05 1536.45 396.73 1588.05 366.94 1590.35 368.26"/><polygon class="cls-22" points="1595.97 371.51 1547.57 399.45 1545.28 398.13 1593.67 370.18 1595.97 371.51"/><polygon class="cls-22" points="1599.63 373.62 1542.65 406.52 1540.36 405.2 1597.34 372.3 1599.63 373.62"/><polygon class="cls-22" points="1603.3 375.74 1546.31 408.64 1544.02 407.31 1601 374.41 1603.3 375.74"/><polygon class="cls-22" points="1606.96 377.85 1549.98 410.75 1547.68 409.43 1604.67 376.53 1606.96 377.85"/><polygon class="cls-22" points="1535.63 399.85 1533.34 401.18 1531.04 399.85 1533.34 398.53 1535.63 399.85"/><polygon class="cls-22" points="1543.72 401.67 1538.96 404.42 1536.67 403.1 1541.43 400.35 1543.72 401.67"/><path class="cls-45" d="M1589.76,407.75l16-9.24a.69.69,0,0,0,0-1.31l-11-6.33a2.52,2.52,0,0,0-2.27,0l-16,9.25a.69.69,0,0,0,0,1.31l11,6.32A2.46,2.46,0,0,0,1589.76,407.75Z"/><path class="cls-21" d="M1576.54,400.66l16-9.25a2.52,2.52,0,0,1,2.27,0l11,6.32a1.07,1.07,0,0,1,.4.39c.16-.32,0-.67-.4-.92l-11-6.33a2.52,2.52,0,0,0-2.27,0l-16,9.25c-.44.25-.56.61-.4.92A1,1,0,0,1,1576.54,400.66Z"/><g class="cls-46"><g class="cls-47"><path class="cls-48" d="M1588.69,358.88l-71.48,41.27a3,3,0,0,1-2.65.11l-42.65-24.63c-.68-.39-.59-1.07.19-1.52l71.48-41.27a2.94,2.94,0,0,1,2.64-.11l42.66,24.62C1589.56,357.75,1589.47,358.43,1588.69,358.88Z"/><path class="cls-49" d="M1517,366.28l16-9.25c.63-.36.63-.94,0-1.31l-11-6.32a2.52,2.52,0,0,0-2.27,0l-16,9.25c-.63.36-.63.94,0,1.31l11,6.32A2.52,2.52,0,0,0,1517,366.28Z"/><path class="cls-21" d="M1503.78,359.18l16-9.24a2.46,2.46,0,0,1,2.27,0l11,6.32a1,1,0,0,1,.4.39c.16-.32,0-.68-.4-.93l-11-6.32a2.52,2.52,0,0,0-2.27,0l-16,9.25c-.44.25-.56.6-.4.92A1,1,0,0,1,1503.78,359.18Z"/><path class="cls-20" d="M1496.73,380.73l59.41-34.29a1.27,1.27,0,0,1,1.28,0l21.15,12.23a.46.46,0,0,1,0,.79l-59.38,34.28a1.26,1.26,0,0,1-1.27,0l-21.19-12.22A.46.46,0,0,1,1496.73,380.73Z"/><path class="cls-21" d="M1496.73,381.52l.22.12,59.19-34.17a1.27,1.27,0,0,1,1.28,0l20.93,12.12.22-.13a.46.46,0,0,0,0-.79l-21.15-12.23a1.27,1.27,0,0,0-1.28,0l-59.41,34.29A.46.46,0,0,0,1496.73,381.52Z"/><polygon class="cls-22" points="1573.03 357.84 1521.28 387.72 1523.33 388.9 1575.08 359.02 1573.03 357.84"/><polygon class="cls-22" points="1567.58 354.69 1518.39 383.09 1520.44 384.27 1569.63 355.88 1567.58 354.69"/><polygon class="cls-22" points="1514.72 385.21 1510.13 387.86 1512.18 389.05 1516.77 386.39 1514.72 385.21"/><polygon class="cls-22" points="1518.78 389.16 1515.58 391.01 1517.63 392.19 1520.83 390.35 1518.78 389.16"/><polygon class="cls-22" points="1564.16 352.72 1506.71 385.89 1508.76 387.07 1566.21 353.9 1564.16 352.72"/><polygon class="cls-22" points="1560.75 350.75 1503.29 383.92 1505.34 385.1 1562.8 351.93 1560.75 350.75"/><polygon class="cls-22" points="1557.33 348.77 1499.88 381.94 1501.93 383.13 1559.38 349.96 1557.33 348.77"/></g></g><polygon class="cls-15" points="1535.3 377.59 1540.93 374.34 1541.09 375.32 1535.46 378.57 1535.3 377.59"/><polygon class="cls-15" points="1541.83 373.82 1544.9 372.05 1545.07 373.02 1542 374.8 1541.83 373.82"/><polygon class="cls-15" points="1549.68 369.29 1551.9 368.01 1552.06 368.99 1549.84 370.27 1549.68 369.29"/><polygon class="cls-15" points="1548.06 370.23 1548.82 369.79 1548.98 370.76 1548.22 371.2 1548.06 370.23"/><polygon class="cls-15" points="1545.82 371.52 1547.2 370.72 1547.36 371.7 1545.98 372.5 1545.82 371.52"/><polygon class="cls-15" points="1539.75 370.12 1541.97 368.83 1542.14 369.81 1539.92 371.09 1539.75 370.12"/><polygon class="cls-15" points="1534.54 373.13 1538.89 370.61 1539.06 371.59 1534.71 374.1 1534.54 373.13"/><polygon class="cls-15" points="1540.78 357.28 1545.13 354.76 1545.29 355.74 1540.94 358.25 1540.78 357.28"/><polygon class="cls-15" points="1538.54 358.57 1539.92 357.77 1540.08 358.75 1538.71 359.55 1538.54 358.57"/><polygon class="cls-15" points="1541.51 361.75 1545.86 359.24 1546.02 360.21 1541.67 362.73 1541.51 361.75"/><polygon class="cls-15" points="1539.27 363.04 1540.64 362.25 1540.81 363.23 1539.43 364.02 1539.27 363.04"/><polygon class="cls-15" points="1537.57 337.97 1529.37 342.71 1529.21 341.73 1537.4 336.99 1537.57 337.97"/><polygon class="cls-15" points="1540.46 336.3 1538.43 337.47 1538.26 336.49 1540.29 335.32 1540.46 336.3"/><polygon class="cls-15" points="1554.86 335.35 1546.66 340.09 1546.5 339.11 1554.69 334.37 1554.86 335.35"/><polygon class="cls-15" points="1557.74 333.68 1555.72 334.85 1555.55 333.88 1557.58 332.7 1557.74 333.68"/><polygon class="cls-15" points="1531.97 343.66 1529.75 344.94 1529.59 343.96 1531.81 342.68 1531.97 343.66"/><polygon class="cls-15" points="1545.48 340.76 1543.26 342.04 1543.09 341.06 1545.31 339.78 1545.48 340.76"/><polygon class="cls-15" points="1537.18 340.64 1532.83 343.16 1532.67 342.18 1537.02 339.67 1537.18 340.64"/><polygon class="cls-15" points="1539.42 339.35 1538.04 340.15 1537.88 339.17 1539.25 338.37 1539.42 339.35"/><polygon class="cls-15" points="1544.67 336.32 1540.32 338.84 1540.15 337.86 1544.51 335.34 1544.67 336.32"/><polygon class="cls-15" points="1546.91 335.03 1545.53 335.82 1545.37 334.85 1546.74 334.05 1546.91 335.03"/><polygon class="cls-15" points="1545.1 338.52 1542.88 339.81 1542.72 338.83 1544.94 337.55 1545.1 338.52"/><polygon class="cls-15" points="1550.31 335.51 1545.96 338.03 1545.8 337.05 1550.15 334.54 1550.31 335.51"/><polygon class="cls-15" points="1552.55 334.22 1551.17 335.01 1551.01 334.04 1552.38 333.24 1552.55 334.22"/><polygon class="cls-15" points="1534.67 344.55 1530.13 347.17 1529.96 346.2 1534.51 343.57 1534.67 344.55"/><polygon class="cls-15" points="1538.82 342.15 1535.53 344.05 1535.37 343.07 1538.65 341.17 1538.82 342.15"/><polygon class="cls-15" points="1541.9 340.37 1539.68 341.65 1539.51 340.68 1541.73 339.39 1541.9 340.37"/><polygon class="cls-15" points="1563.43 330.41 1558.89 333.03 1558.72 332.05 1563.26 329.43 1563.43 330.41"/><polygon class="cls-15" points="1567.58 328.01 1564.29 329.91 1564.12 328.93 1567.41 327.03 1567.58 328.01"/><polygon class="cls-15" points="1570.65 326.23 1568.43 327.51 1568.27 326.53 1570.49 325.25 1570.65 326.23"/><polygon class="cls-15" points="1561.65 359.92 1566.2 357.3 1566.36 358.27 1561.82 360.9 1561.65 359.92"/><polygon class="cls-15" points="1557.51 362.32 1560.79 360.42 1560.96 361.4 1557.67 363.3 1557.51 362.32"/><polygon class="cls-15" points="1554.43 364.1 1556.65 362.82 1556.81 363.79 1554.59 365.08 1554.43 364.1"/><polygon class="cls-15" points="1560.15 363.25 1564.69 360.63 1564.86 361.61 1560.31 364.23 1560.15 363.25"/><polygon class="cls-15" points="1556 365.65 1559.29 363.75 1559.45 364.73 1556.17 366.63 1556 365.65"/><polygon class="cls-15" points="1552.92 367.43 1555.14 366.15 1555.31 367.13 1553.09 368.41 1552.92 367.43"/><polygon class="cls-15" points="1541.8 359.12 1543.34 358.24 1543.5 359.21 1541.97 360.1 1541.8 359.12"/><polygon class="cls-15" points="1538.92 360.79 1540.94 359.62 1541.11 360.6 1539.08 361.77 1538.92 360.79"/><polygon class="cls-15" points="1535.08 346.77 1530.53 349.39 1530.37 348.42 1534.91 345.79 1535.08 346.77"/><polygon class="cls-15" points="1539.22 344.37 1535.94 346.27 1535.77 345.29 1539.06 343.39 1539.22 344.37"/><polygon class="cls-15" points="1542.3 342.59 1540.08 343.88 1539.92 342.9 1542.14 341.61 1542.3 342.59"/><polygon class="cls-15" points="1532.45 350.74 1530.91 351.63 1530.75 350.65 1532.28 349.76 1532.45 350.74"/><polygon class="cls-15" points="1535.33 349.07 1533.31 350.24 1533.14 349.27 1535.17 348.09 1535.33 349.07"/><polygon class="cls-15" points="1539.46 346.69 1536.19 348.57 1536.03 347.6 1539.3 345.71 1539.46 346.69"/><polygon class="cls-15" points="1543.89 365.28 1545.43 364.4 1545.59 365.38 1544.06 366.26 1543.89 365.28"/><polygon class="cls-15" points="1541 366.95 1543.03 365.78 1543.2 366.76 1541.17 367.93 1541 366.95"/><polygon class="cls-15" points="1536.88 369.34 1540.14 367.45 1540.31 368.43 1537.04 370.32 1536.88 369.34"/><polygon class="cls-15" points="1546.23 361.66 1549.5 359.77 1549.66 360.75 1546.39 362.63 1546.23 361.66"/><polygon class="cls-15" points="1540.88 364.57 1545.29 362.02 1545.45 363 1541.05 365.55 1540.88 364.57"/><polygon class="cls-15" points="1538.65 365.86 1540.03 365.07 1540.19 366.05 1538.81 366.84 1538.65 365.86"/><polygon class="cls-15" points="1536.5 367.11 1537.88 366.31 1538.04 367.29 1536.66 368.08 1536.5 367.11"/><polygon class="cls-15" points="1536.79 354.48 1541.14 351.97 1541.31 352.95 1536.96 355.46 1536.79 354.48"/><polygon class="cls-15" points="1534.56 355.78 1535.93 354.98 1536.1 355.96 1534.72 356.75 1534.56 355.78"/><polygon class="cls-15" points="1537.09 351.86 1538.63 350.97 1538.79 351.95 1537.26 352.83 1537.09 351.86"/><polygon class="cls-15" points="1542.51 353.64 1544.04 352.76 1544.21 353.74 1542.67 354.62 1542.51 353.64"/><polygon class="cls-15" points="1544.7 352.38 1548.38 350.26 1548.54 351.23 1544.86 353.36 1544.7 352.38"/><polygon class="cls-15" points="1549.03 349.88 1551.22 348.62 1551.39 349.59 1549.2 350.86 1549.03 349.88"/><polygon class="cls-15" points="1534.2 353.52 1536.23 352.35 1536.4 353.33 1534.37 354.5 1534.2 353.52"/><polygon class="cls-15" points="1534.01 351.23 1535.55 350.34 1535.71 351.32 1534.18 352.21 1534.01 351.23"/><polygon class="cls-15" points="1531.13 352.9 1533.15 351.73 1533.32 352.7 1531.29 353.88 1531.13 352.9"/><polygon class="cls-15" points="1540.28 354.93 1541.66 354.13 1541.83 355.11 1540.45 355.91 1540.28 354.93"/><polygon class="cls-15" points="1538.14 356.17 1539.51 355.38 1539.68 356.35 1538.3 357.15 1538.14 356.17"/><polygon class="cls-15" points="1548.72 367.4 1553.42 364.68 1553.58 365.66 1548.88 368.38 1548.72 367.4"/><polygon class="cls-15" points="1543.45 370.44 1547.86 367.9 1548.02 368.87 1543.62 371.42 1543.45 370.44"/><polygon class="cls-15" points="1541.22 371.74 1542.6 370.94 1542.76 371.92 1541.38 372.71 1541.22 371.74"/><polygon class="cls-15" points="1539.07 372.98 1540.45 372.18 1540.61 373.16 1539.23 373.95 1539.07 372.98"/><polygon class="cls-15" points="1537.89 373.65 1534.92 375.37 1535.09 376.35 1538.06 374.63 1537.89 373.65"/><g class="cls-11"><path class="cls-50" d="M1419.1,436.6a6.7,6.7,0,0,1-3.33-.89h0l-64.86-37.44a2,2,0,0,1,0-3.49l40.87-23.59.25.14L1460,410.55a2,2,0,0,1,0,3.49l-37.54,21.67A6.69,6.69,0,0,1,1419.1,436.6Zm-2.82-1.75a5.78,5.78,0,0,0,5.64,0l37.54-21.68a1,1,0,0,0,.51-.87,1,1,0,0,0-.51-.88l-67.68-39.07-.06,0-40.3,23.27a1,1,0,0,0,0,1.75Z"/></g><path class="cls-51" d="M1391.7,356.29l9-53.6-.72-.31,1.09-.63h0a.79.79,0,0,1,.84.06l72.21,41.69a2,2,0,0,1,.94,1.84l-9.11,54a.65.65,0,0,1-.38.55h0l-1.07.62-.19-1,.06,0-71.77-41.44A2,2,0,0,1,1391.7,356.29Z"/><path class="cls-52" d="M1473.75,345l1.19-.53a1.65,1.65,0,0,1,.15.9l-9.11,54a.65.65,0,0,1-.38.55h0l-1.07.62-.19-1,.06,0-3.63-2.1Z"/><path class="cls-22" d="M1391.5,358.78l72.22,41.69c.56.32,1,.14,1.13-.44l9.11-54a2.06,2.06,0,0,0-.94-1.84l-72.21-41.69c-.56-.32-1-.14-1.14.44l-9.1,54A2,2,0,0,0,1391.5,358.78Z"/><g class="cls-34"><polygon class="cls-26" points="1401.75 305.92 1471.36 346.11 1462.73 397 1393.16 356.83 1401.75 305.92"/></g><path class="cls-53" d="M1346.11,384.36l3.94,2.06,39.52-22.82a2.88,2.88,0,0,1,2.58.11l68.15,39.35c.66-.36,3.63-1.79,3.63-1.79l-1.44,3.76h0a.89.89,0,0,1-.4.45l-41.62,24a2.88,2.88,0,0,1-2.58-.11l-69.75-40.27a1.25,1.25,0,0,1-.58-.62h0Z"/><path class="cls-54" d="M1346.72,385l71.48,41.27a2.94,2.94,0,0,0,2.64.11l42.66-24.63c.68-.39.59-1.07-.19-1.52L1391.83,359a2.9,2.9,0,0,0-2.65-.11l-42.65,24.62C1345.85,383.87,1345.94,384.56,1346.72,385Z"/><path class="cls-18" d="M1346.72,384.6l71.48,41.27a2.94,2.94,0,0,0,2.64.11l42.66-24.63a.89.89,0,0,0,.41-.46.72.72,0,0,1-.41.87l-42.66,24.63a2.94,2.94,0,0,1-2.64-.11L1346.72,385c-.53-.3-.73-.71-.61-1.07A1.26,1.26,0,0,0,1346.72,384.6Z"/><path class="cls-19" d="M1439.76,417.35v-.78c0-.08,0-.11-.1-.08l-2.77,1.6a.26.26,0,0,0-.1.19v.78c0,.08,0,.11.1.08l2.77-1.6A.24.24,0,0,0,1439.76,417.35Z"/><path class="cls-19" d="M1435.62,419.74V419c0-.07,0-.1-.1-.07l-2.76,1.59a.25.25,0,0,0-.1.2v.78c0,.08,0,.11.1.08l2.76-1.6A.23.23,0,0,0,1435.62,419.74Z"/><path class="cls-20" d="M1452.38,399.46l-59.4-34.3a1.27,1.27,0,0,0-1.28,0l-21.16,12.24a.46.46,0,0,0,0,.79l59.38,34.28a1.27,1.27,0,0,0,1.28,0l21.18-12.23A.45.45,0,0,0,1452.38,399.46Z"/><path class="cls-21" d="M1452.38,400.24l-.22.13L1393,366.2a1.27,1.27,0,0,0-1.28,0l-20.94,12.11-.22-.12a.46.46,0,0,1,0-.79l21.16-12.24a1.27,1.27,0,0,1,1.28,0l59.4,34.3A.45.45,0,0,1,1452.38,400.24Z"/><polygon class="cls-22" points="1395.07 371.13 1445.35 400.16 1447.52 398.76 1397.37 369.81 1395.07 371.13"/><polygon class="cls-22" points="1391.8 375.74 1437.45 402.09 1439.02 400.35 1394.1 374.41 1391.8 375.74"/><polygon class="cls-22" points="1380.81 373.62 1437.79 406.52 1440.09 405.2 1383.11 372.3 1380.81 373.62"/><polygon class="cls-22" points="1377.15 375.74 1434.13 408.64 1436.42 407.31 1379.44 374.41 1377.15 375.74"/><polygon class="cls-22" points="1373.48 377.85 1430.47 410.75 1432.76 409.43 1375.78 376.53 1373.48 377.85"/><polygon class="cls-22" points="1444.82 399.85 1447.11 401.18 1449.4 399.85 1447.11 398.53 1444.82 399.85"/><polygon class="cls-22" points="1436.72 401.67 1441.48 404.42 1443.78 403.1 1439.02 400.35 1436.72 401.67"/><path class="cls-55" d="M1390.69,407.75l-16-9.24a.69.69,0,0,1,0-1.31l11-6.33a2.5,2.5,0,0,1,2.26,0l16,9.25a.69.69,0,0,1,0,1.31l-11,6.32A2.46,2.46,0,0,1,1390.69,407.75Z"/><path class="cls-21" d="M1403.91,400.66l-16-9.25a2.5,2.5,0,0,0-2.26,0l-11,6.32a1,1,0,0,0-.39.39c-.17-.32,0-.67.39-.92l11-6.33a2.5,2.5,0,0,1,2.26,0l16,9.25c.43.25.56.61.39.92A1,1,0,0,0,1403.91,400.66Z"/><g class="cls-46"><g class="cls-56"><path class="cls-57" d="M1391.76,358.88l71.48,41.27a2.94,2.94,0,0,0,2.64.11l42.66-24.63c.67-.39.59-1.07-.19-1.52l-71.48-41.27a3,3,0,0,0-2.65-.11l-42.65,24.62C1390.89,357.75,1391,358.43,1391.76,358.88Z"/><path class="cls-58" d="M1463.45,366.28l-16-9.25a.69.69,0,0,1,0-1.31l11-6.32a2.5,2.5,0,0,1,2.26,0l16,9.25c.63.36.63.94,0,1.31l-11,6.32A2.52,2.52,0,0,1,1463.45,366.28Z"/><path class="cls-21" d="M1476.67,359.18l-16-9.24a2.44,2.44,0,0,0-2.26,0l-11,6.32a.91.91,0,0,0-.39.39c-.17-.32,0-.68.39-.93l11-6.32a2.5,2.5,0,0,1,2.26,0l16,9.25c.43.25.56.6.39.92A1,1,0,0,0,1476.67,359.18Z"/><path class="cls-20" d="M1483.71,380.73l-59.4-34.29a1.27,1.27,0,0,0-1.28,0l-21.15,12.23a.45.45,0,0,0,0,.79l59.37,34.28a1.27,1.27,0,0,0,1.28,0l21.18-12.22A.46.46,0,0,0,1483.71,380.73Z"/><path class="cls-21" d="M1483.71,381.52l-.21.12-59.19-34.17a1.27,1.27,0,0,0-1.28,0l-20.94,12.12-.21-.13a.45.45,0,0,1,0-.79L1423,346.44a1.27,1.27,0,0,1,1.28,0l59.4,34.29A.46.46,0,0,1,1483.71,381.52Z"/><polygon class="cls-22" points="1407.41 357.84 1459.16 387.72 1457.11 388.9 1405.36 359.02 1407.41 357.84"/><polygon class="cls-22" points="1412.87 354.69 1462.05 383.09 1460 384.27 1410.82 355.88 1412.87 354.69"/><polygon class="cls-22" points="1465.72 385.21 1470.32 387.86 1468.27 389.05 1463.67 386.39 1465.72 385.21"/><polygon class="cls-22" points="1461.67 389.16 1464.87 391.01 1462.82 392.19 1459.62 390.35 1461.67 389.16"/><polygon class="cls-22" points="1416.28 352.72 1473.73 385.89 1471.68 387.07 1414.23 353.9 1416.28 352.72"/><polygon class="cls-22" points="1419.7 350.75 1477.15 383.92 1475.1 385.1 1417.65 351.93 1419.7 350.75"/><polygon class="cls-22" points="1423.12 348.77 1480.57 381.94 1478.52 383.13 1421.07 349.96 1423.12 348.77"/></g></g><polygon class="cls-15" points="1417.34 324.78 1422.97 328.04 1423.13 327.06 1417.5 323.8 1417.34 324.78"/><polygon class="cls-15" points="1423.87 328.56 1426.94 330.33 1427.11 329.35 1424.04 327.58 1423.87 328.56"/><polygon class="cls-15" points="1431.72 333.08 1433.94 334.37 1434.1 333.39 1431.88 332.11 1431.72 333.08"/><polygon class="cls-15" points="1430.1 332.15 1430.86 332.59 1431.02 331.61 1430.26 331.17 1430.1 332.15"/><polygon class="cls-15" points="1427.86 330.86 1429.24 331.65 1429.4 330.67 1428.02 329.88 1427.86 330.86"/><polygon class="cls-15" points="1421.79 332.26 1424.01 333.54 1424.18 332.56 1421.96 331.28 1421.79 332.26"/><polygon class="cls-15" points="1416.58 329.25 1420.93 331.76 1421.1 330.79 1416.75 328.27 1416.58 329.25"/><polygon class="cls-15" points="1422.82 345.1 1427.17 347.61 1427.33 346.63 1422.98 344.12 1422.82 345.1"/><polygon class="cls-15" points="1420.58 343.8 1421.96 344.6 1422.12 343.62 1420.74 342.83 1420.58 343.8"/><polygon class="cls-15" points="1423.54 340.62 1427.89 343.14 1428.06 342.16 1423.71 339.65 1423.54 340.62"/><polygon class="cls-15" points="1421.31 339.33 1422.68 340.13 1422.85 339.15 1421.47 338.35 1421.31 339.33"/><polygon class="cls-15" points="1419.61 364.4 1411.41 359.67 1411.25 360.65 1419.44 365.38 1419.61 364.4"/><polygon class="cls-15" points="1422.49 366.07 1420.47 364.9 1420.3 365.88 1422.33 367.05 1422.49 366.07"/><polygon class="cls-15" points="1436.89 367.02 1428.7 362.29 1428.54 363.27 1436.73 368 1436.89 367.02"/><polygon class="cls-15" points="1439.78 368.69 1437.76 367.52 1437.59 368.5 1439.62 369.67 1439.78 368.69"/><polygon class="cls-15" points="1414.01 358.72 1411.79 357.43 1411.62 358.41 1413.84 359.7 1414.01 358.72"/><polygon class="cls-15" points="1427.52 361.62 1425.3 360.33 1425.13 361.31 1427.35 362.59 1427.52 361.62"/><polygon class="cls-15" points="1419.22 361.73 1414.87 359.21 1414.7 360.19 1419.05 362.71 1419.22 361.73"/><polygon class="cls-15" points="1421.46 363.02 1420.08 362.23 1419.91 363.2 1421.29 364 1421.46 363.02"/><polygon class="cls-15" points="1426.71 366.05 1422.36 363.54 1422.19 364.52 1426.54 367.03 1426.71 366.05"/><polygon class="cls-15" points="1428.95 367.35 1427.57 366.55 1427.4 367.53 1428.78 368.32 1428.95 367.35"/><polygon class="cls-15" points="1427.14 363.85 1424.92 362.57 1424.75 363.55 1426.97 364.83 1427.14 363.85"/><polygon class="cls-15" points="1432.35 366.86 1428 364.35 1427.84 365.32 1432.18 367.84 1432.35 366.86"/><polygon class="cls-15" points="1434.59 368.15 1433.21 367.36 1433.05 368.34 1434.42 369.13 1434.59 368.15"/><polygon class="cls-15" points="1416.71 357.83 1412.17 355.2 1412 356.18 1416.54 358.8 1416.71 357.83"/><polygon class="cls-15" points="1420.85 360.22 1417.57 358.32 1417.4 359.3 1420.69 361.2 1420.85 360.22"/><polygon class="cls-15" points="1423.93 362 1421.71 360.72 1421.55 361.7 1423.77 362.98 1423.93 362"/><polygon class="cls-15" points="1445.47 371.97 1440.92 369.34 1440.76 370.32 1445.3 372.95 1445.47 371.97"/><polygon class="cls-15" points="1449.61 374.37 1446.33 372.47 1446.16 373.44 1449.45 375.34 1449.61 374.37"/><polygon class="cls-15" points="1452.69 376.14 1450.47 374.86 1450.31 375.84 1452.53 377.12 1452.69 376.14"/><polygon class="cls-15" points="1443.69 342.45 1448.24 345.08 1448.4 344.1 1443.86 341.47 1443.69 342.45"/><polygon class="cls-15" points="1439.55 340.06 1442.83 341.95 1443 340.98 1439.71 339.08 1439.55 340.06"/><polygon class="cls-15" points="1436.47 338.27 1438.69 339.56 1438.85 338.58 1436.63 337.3 1436.47 338.27"/><polygon class="cls-15" points="1442.18 339.12 1446.73 341.74 1446.89 340.77 1442.35 338.14 1442.18 339.12"/><polygon class="cls-15" points="1438.04 336.72 1441.33 338.62 1441.49 337.64 1438.2 335.75 1438.04 336.72"/><polygon class="cls-15" points="1434.96 334.94 1437.18 336.23 1437.35 335.25 1435.12 333.96 1434.96 334.94"/><polygon class="cls-15" points="1423.84 343.25 1425.38 344.14 1425.54 343.16 1424.01 342.27 1423.84 343.25"/><polygon class="cls-15" points="1420.95 341.58 1422.98 342.75 1423.15 341.77 1421.12 340.6 1420.95 341.58"/><polygon class="cls-15" points="1417.12 355.61 1412.57 352.98 1412.41 353.96 1416.95 356.58 1417.12 355.61"/><polygon class="cls-15" points="1421.26 358 1417.98 356.1 1417.81 357.08 1421.1 358.98 1421.26 358"/><polygon class="cls-15" points="1424.34 359.78 1422.12 358.5 1421.96 359.48 1424.18 360.76 1424.34 359.78"/><polygon class="cls-15" points="1414.48 351.63 1412.95 350.75 1412.79 351.72 1414.32 352.61 1414.48 351.63"/><polygon class="cls-15" points="1417.37 353.3 1415.35 352.13 1415.18 353.11 1417.21 354.28 1417.37 353.3"/><polygon class="cls-15" points="1421.5 355.69 1418.23 353.8 1418.07 354.78 1421.34 356.67 1421.5 355.69"/><polygon class="cls-15" points="1425.93 337.09 1427.46 337.98 1427.63 337 1426.1 336.11 1425.93 337.09"/><polygon class="cls-15" points="1423.04 335.42 1425.07 336.59 1425.23 335.62 1423.21 334.44 1423.04 335.42"/><polygon class="cls-15" points="1418.91 333.04 1422.18 334.92 1422.35 333.95 1419.08 332.06 1418.91 333.04"/><polygon class="cls-15" points="1428.27 340.72 1431.53 342.61 1431.7 341.63 1428.43 339.74 1428.27 340.72"/><polygon class="cls-15" points="1422.92 337.8 1427.33 340.35 1427.49 339.37 1423.09 336.83 1422.92 337.8"/><polygon class="cls-15" points="1420.68 336.51 1422.06 337.31 1422.23 336.33 1420.85 335.53 1420.68 336.51"/><polygon class="cls-15" points="1418.54 335.27 1419.91 336.07 1420.08 335.09 1418.7 334.29 1418.54 335.27"/><polygon class="cls-15" points="1418.83 347.89 1423.18 350.41 1423.35 349.43 1419 346.91 1418.83 347.89"/><polygon class="cls-15" points="1416.59 346.6 1417.97 347.39 1418.14 346.42 1416.76 345.62 1416.59 346.6"/><polygon class="cls-15" points="1419.13 350.52 1420.67 351.41 1420.83 350.43 1419.3 349.54 1419.13 350.52"/><polygon class="cls-15" points="1424.55 348.73 1426.08 349.62 1426.25 348.64 1424.71 347.75 1424.55 348.73"/><polygon class="cls-15" points="1426.74 349.99 1430.42 352.12 1430.58 351.14 1426.9 349.01 1426.74 349.99"/><polygon class="cls-15" points="1431.07 352.49 1433.26 353.76 1433.43 352.78 1431.24 351.52 1431.07 352.49"/><polygon class="cls-15" points="1416.24 348.85 1418.27 350.02 1418.44 349.04 1416.41 347.87 1416.24 348.85"/><polygon class="cls-15" points="1416.05 351.14 1417.59 352.03 1417.75 351.05 1416.22 350.17 1416.05 351.14"/><polygon class="cls-15" points="1413.16 349.48 1415.19 350.65 1415.36 349.67 1413.33 348.5 1413.16 349.48"/><polygon class="cls-15" points="1422.32 347.44 1423.7 348.24 1423.87 347.26 1422.49 346.47 1422.32 347.44"/><polygon class="cls-15" points="1420.17 346.2 1421.55 347 1421.72 346.02 1420.34 345.23 1420.17 346.2"/><polygon class="cls-15" points="1430.76 334.98 1435.46 337.69 1435.62 336.71 1430.92 334 1430.76 334.98"/><polygon class="cls-15" points="1425.49 331.93 1429.9 334.48 1430.06 333.5 1425.66 330.95 1425.49 331.93"/><polygon class="cls-15" points="1423.26 330.64 1424.63 331.44 1424.8 330.46 1423.42 329.66 1423.26 330.64"/><polygon class="cls-15" points="1421.11 329.4 1422.48 330.19 1422.65 329.22 1421.27 328.42 1421.11 329.4"/><polygon class="cls-15" points="1419.93 328.72 1416.96 327 1417.13 326.02 1420.1 327.74 1419.93 328.72"/><polygon class="cls-22" points="1390.1 368.26 1392.39 369.58 1394.69 368.26 1392.39 366.94 1390.1 368.26"/><polygon class="cls-22" points="1384.48 371.51 1389.24 374.26 1391.53 372.93 1386.77 370.18 1384.48 371.51"/><path class="cls-59" d="M1541.6,278.79c2,1.13,2,3,0,4.09l-46.18,26.84a7.8,7.8,0,0,1-7.07,0l-46.48-26.84c-2-1.13-2-3,0-4.09L1488.05,252a7.8,7.8,0,0,1,7.07,0Z"/><path class="cls-60" d="M1446.81,280.05a2.24,2.24,0,0,1-1.33-1.86v1.59a2.27,2.27,0,0,0,1.33,1.86l41.9,24.19v-1.58Z"/><path class="cls-61" d="M1536.72,280.05l-41.63,24.2a7.07,7.07,0,0,1-6.37,0v1.58a7,7,0,0,0,6.37,0l41.64-24.19a2.23,2.23,0,0,0,1.3-1.84v-1.58A2.24,2.24,0,0,1,1536.72,280.05Z"/><path class="cls-62" d="M1536.7,276.36c1.76,1,1.77,2.67,0,3.69l-41.63,24.2a7.07,7.07,0,0,1-6.37,0l-41.91-24.2c-1.76-1-1.77-2.67,0-3.69l41.63-24.19a7,7,0,0,1,6.37,0Z"/><path id="Ai" class="cls-18" d="M1500.51,285.43l-.36.22-.43-.25.37-.21Zm-11.57,7.47-.31.18,2.65,1.54.32-.19Zm1.35,1.94-.29.17-.17.07-.21,0-.2,0a.75.75,0,0,1-.18-.07l-1.67-1,.67-.39-.3-.18-.67.39-.69-.4-.27.22.64.37-.47.27.3.18.47-.28,1.66.95a1,1,0,0,0,.32.13,1.64,1.64,0,0,0,.38,0,1.55,1.55,0,0,0,.37,0,1.2,1.2,0,0,0,.33-.13l.29-.16Zm-.47-3.69-.29.17a.7.7,0,0,0-.22.19.36.36,0,0,0-.07.22.51.51,0,0,0,.07.22.67.67,0,0,0,.22.18l.36.21-.47.28.3.18.48-.28,2.35,1.36.32-.19-2.35-1.36.61-.35-.3-.18-.62.36-.37-.22a.34.34,0,0,1-.13-.1.56.56,0,0,1,0-.12.28.28,0,0,1,0-.12.4.4,0,0,1,.12-.1l.29-.17Zm1.8.19-.31.18,2.65,1.54.32-.19ZM1506,278.82l-31.06-8-2.68,1.56,14,18,4.54-2.63-2.35-2.82,8.19-4.76,4.86,1.36Zm-20.26,2.86-5-6,10.35,2.88-5.35,3.11m9.5,7.59-.32.18,2.66,1.54.31-.19Zm.76,1.66-.37.16.18.1a.44.44,0,0,1,.14.13.19.19,0,0,1,0,.14.2.2,0,0,1,0,.14.33.33,0,0,1-.14.12l-.21.13-.22.08-.24,0-.24,0a.63.63,0,0,1-.22-.08l-1.24-.72a.33.33,0,0,1-.14-.12.27.27,0,0,1,0-.14.19.19,0,0,1,0-.14.44.44,0,0,1,.14-.13l.21-.12a.58.58,0,0,1,.22-.08l.24,0a1.07,1.07,0,0,1,.25,0,.49.49,0,0,1,.21.08l.18.1.26-.22-.1-.06a1.78,1.78,0,0,0-.37-.14,1.84,1.84,0,0,0-.41,0,2,2,0,0,0-.42,0,1.92,1.92,0,0,0-.36.14l-.21.13a.63.63,0,0,0-.24.21.38.38,0,0,0-.08.24.46.46,0,0,0,.08.24.83.83,0,0,0,.24.21l1.2.69a1.35,1.35,0,0,0,.37.14,1.84,1.84,0,0,0,.41,0,1.93,1.93,0,0,0,.42,0,1.29,1.29,0,0,0,.36-.14l.21-.12a.63.63,0,0,0,.24-.21.38.38,0,0,0,.08-.24.46.46,0,0,0-.08-.24.63.63,0,0,0-.24-.21Zm.37-25.13-4.21,2.45,16.07,9.27,4.21-2.44Zm-6.44-3.72-4.21,2.45,4.24,2.45,4.22-2.45Zm-2.42,34.76-4.81-1.52-.18.1,2.64,2.78.35-.2-.63-.64,1.17-.68,1.12.36Zm-2.86.28-1.23-1.27-.12-.08.14.07,2.21.71-1,.57m1.61-2.7-.18.11a.79.79,0,0,0-.28.26.37.37,0,0,0,0,.29l-.45-.05-.1.06,2.66,1.53.31-.18-1.89-1.09a.44.44,0,0,1-.14-.13.24.24,0,0,1,0-.14.2.2,0,0,1,0-.14.44.44,0,0,1,.14-.13l.32-.18Zm1.69-2.15-.36.21.42.25.37-.22Zm2.68-1.56-.36.21.42.25.37-.22Zm3.57-2.07-.37.21.42.25.37-.22Zm5.65.72.44.05.11-.06-1.93-1.12a1.92,1.92,0,0,0-.36-.14,2,2,0,0,0-.42,0,1.84,1.84,0,0,0-.41,0,1.78,1.78,0,0,0-.37.14l-.18.11a.63.63,0,0,0-.24.21.38.38,0,0,0-.08.24.35.35,0,0,0,.08.24.63.63,0,0,0,.24.21l0,0,.37-.15-.1-.06a.44.44,0,0,1-.14-.13.19.19,0,0,1,0-.14.2.2,0,0,1,0-.14.28.28,0,0,1,.14-.12l.18-.11a.85.85,0,0,1,.22-.09l.24,0,.25,0a.67.67,0,0,1,.21.09l.42.23-.68.4a1,1,0,0,0-.24.2.38.38,0,0,0-.07.25.33.33,0,0,0,.08.24.86.86,0,0,0,.24.21h0a1.29,1.29,0,0,0,.36.14,1.86,1.86,0,0,0,.42.05,1.84,1.84,0,0,0,.41-.05,1.18,1.18,0,0,0,.36-.14l.09,0a.8.8,0,0,0,.26-.26A.38.38,0,0,0,1499.8,289.36Zm-.69.42a1,1,0,0,1-.21.08,1.07,1.07,0,0,1-.25,0l-.24,0-.22-.08-.11-.07a.61.61,0,0,1-.15-.12.24.24,0,0,1,0-.29.58.58,0,0,1,.14-.12l.68-.39.57.33a.49.49,0,0,1,.15.13.23.23,0,0,1,0,.14.25.25,0,0,1,0,.14.39.39,0,0,1-.15.13l-.21.12m-1.43-3.2-.31.19,3.72,2.15.32-.19Zm10.19-2-.29.17a.48.48,0,0,1-.18.07,1,1,0,0,1-.4,0,.48.48,0,0,1-.18-.07l-1.67-1,.67-.39-.3-.17-.67.38-.69-.39-.27.21.64.37-.47.27.3.18.47-.28,1.66,1a1,1,0,0,0,.33.12,1.5,1.5,0,0,0,.37.05,1.57,1.57,0,0,0,.37-.05,1.61,1.61,0,0,0,.33-.12l.29-.17Zm2.25-1.15a.46.46,0,0,0-.08-.25,1.29,1.29,0,0,0-.24-.21l-.11-.06-.37.16.18.1a.58.58,0,0,1,.14.12.24.24,0,0,1,0,.29.42.42,0,0,1-.14.12l-.21.13-.22.08a1,1,0,0,1-.24,0,1,1,0,0,1-.25,0l-.22-.08-.59-.35,1.45-.84-.62-.36a1.35,1.35,0,0,0-.37-.14,1.75,1.75,0,0,0-.83,0,1.18,1.18,0,0,0-.36.14l-.22.12a1,1,0,0,0-.24.22.49.49,0,0,0-.08.24.48.48,0,0,0,.09.24.86.86,0,0,0,.24.21l1.2.69a1.42,1.42,0,0,0,.36.14,1.79,1.79,0,0,0,.84,0,1.42,1.42,0,0,0,.36-.14l.21-.12a.86.86,0,0,0,.24-.21A.46.46,0,0,0,1510.12,283.47Zm-2.6-.09-.39-.23a.34.34,0,0,1-.14-.12.23.23,0,0,1,0-.15.27.27,0,0,1,0-.14.49.49,0,0,1,.15-.12l.21-.12a.67.67,0,0,1,.21-.09,1,1,0,0,1,.25,0,1,1,0,0,1,.24,0l.22.08.4.23-1.14.66m-3.16,1.4a1.42,1.42,0,0,0-.36-.14,2,2,0,0,0-.42-.05,1.84,1.84,0,0,0-.41.05,1.35,1.35,0,0,0-.37.14l-.08.05a.62.62,0,0,0-.27.26.37.37,0,0,0,0,.29l-.45-.06-.1.07,2.66,1.53.31-.18-1.94-1.13a.65.65,0,0,1-.15-.12.24.24,0,0,1,0-.29.58.58,0,0,1,.14-.12l.22-.12a.67.67,0,0,1,.21-.09,1,1,0,0,1,.25,0,1,1,0,0,1,.24,0l.22.08,1.94,1.13.32-.19Zm-3.23,1-.32.18,2.66,1.53.32-.18Zm6.73-5.15-.32.19,3.72,2.14.32-.18Zm9.21,0a.32.32,0,0,0-.06-.23.63.63,0,0,0-.24-.21h0a1.21,1.21,0,0,0-.35-.13,1.81,1.81,0,0,0-.4,0,2.76,2.76,0,0,0-.4.06,1.22,1.22,0,0,0-.35.14l-.44.26-.12,0h-.29l-.12,0a.24.24,0,0,1-.09-.08.12.12,0,0,1,0-.16.3.3,0,0,1,.08-.08l.46-.26a.86.86,0,0,0,.24-.21.46.46,0,0,0,.08-.25.46.46,0,0,0-.08-.24,1.29,1.29,0,0,0-.24-.21l-.93-.53-.11.06.1.26a1.75,1.75,0,0,0-.51,0,1.15,1.15,0,0,0-.44.16l-.14.07a.83.83,0,0,0-.24.21.46.46,0,0,0-.08.24.36.36,0,0,0,.09.24.63.63,0,0,0,.24.21l.2.12a1.34,1.34,0,0,0,.41.15,2.32,2.32,0,0,0,.46,0,.26.26,0,0,0,0,.21.51.51,0,0,0,.2.18,1,1,0,0,0,.36.12,1.79,1.79,0,0,0,.4,0,.4.4,0,0,0,.07.22.65.65,0,0,0,.23.19h0a1.42,1.42,0,0,0,.36.14,1.71,1.71,0,0,0,.39,0,1.34,1.34,0,0,0,.4-.06,1.42,1.42,0,0,0,.36-.14l.13-.08a1,1,0,0,0,.25-.2A.37.37,0,0,0,1517.07,280.63Zm-2.89-.76-.22.08a1,1,0,0,1-.24,0,1,1,0,0,1-.25,0,1,1,0,0,1-.21-.08l-.24-.14a.64.64,0,0,1-.15-.13.23.23,0,0,1,0-.14.19.19,0,0,1,0-.14.36.36,0,0,1,.15-.12l.26-.16a1.06,1.06,0,0,1,.46-.11,1.07,1.07,0,0,1,.25,0,.66.66,0,0,1,.21.08l.24.14a.42.42,0,0,1,.14.12.24.24,0,0,1,0,.29.42.42,0,0,1-.14.12l-.26.16m2.1,1.1a1,1,0,0,1-.21.09.93.93,0,0,1-.23,0,.9.9,0,0,1-.23,0,.5.5,0,0,1-.2-.08l0,0a.43.43,0,0,1-.14-.12.16.16,0,0,1,0-.13.22.22,0,0,1,.06-.13.4.4,0,0,1,.16-.12l.16-.1a1,1,0,0,1,.21-.09.78.78,0,0,1,.22,0,.89.89,0,0,1,.23,0l.21.08,0,0a.26.26,0,0,1,.13.12.15.15,0,0,1,0,.13.19.19,0,0,1-.06.13l-.15.12-.16.09m-5-1-.32.19,2.66,1.53.32-.18ZM1509,280l-.32.19,3.73,2.15.31-.19Zm1.19-.69-.37.22.43.24.37-.21Zm15.4-4.83a.36.36,0,0,0-.09-.24.74.74,0,0,0-.24-.22l-.11-.06-.37.16.18.1a.65.65,0,0,1,.15.12.28.28,0,0,1,0,.15.27.27,0,0,1,0,.14.38.38,0,0,1-.15.12l-.21.13a1,1,0,0,1-.21.08,1.07,1.07,0,0,1-.25,0l-.24,0-.22-.08-.59-.35,1.45-.84-.63-.36a1.42,1.42,0,0,0-.36-.14,1.79,1.79,0,0,0-.84,0,1.42,1.42,0,0,0-.36.14l-.21.12a.74.74,0,0,0-.24.22.41.41,0,0,0-.08.24.46.46,0,0,0,.08.24,1.1,1.1,0,0,0,.25.21l1.2.69a1.29,1.29,0,0,0,.36.14,1.86,1.86,0,0,0,.42.05,1.84,1.84,0,0,0,.41-.05,1.35,1.35,0,0,0,.37-.14l.21-.12a1,1,0,0,0,.24-.21A.46.46,0,0,0,1525.61,274.47Zm-2.6-.09-.4-.23a.42.42,0,0,1-.14-.12.24.24,0,0,1,0-.29.58.58,0,0,1,.14-.12l.21-.12a.85.85,0,0,1,.22-.09.65.65,0,0,1,.24,0,1,1,0,0,1,.25,0,.67.67,0,0,1,.21.09l.4.22-1.13.66m-.24,1-.37.15.18.1a.49.49,0,0,1,.15.13.19.19,0,0,1,0,.14.23.23,0,0,1,0,.14.44.44,0,0,1-.14.13l-.22.12a.49.49,0,0,1-.21.08,1,1,0,0,1-.25,0,1,1,0,0,1-.24,0,.58.58,0,0,1-.22-.08l-1.24-.71a.44.44,0,0,1-.14-.13.22.22,0,0,1,0-.28.44.44,0,0,1,.14-.13l.22-.12a.66.66,0,0,1,.21-.08,1,1,0,0,1,.24,0,1,1,0,0,1,.25,0,.66.66,0,0,1,.21.08l.18.1.27-.21-.11-.06a1.13,1.13,0,0,0-.36-.14,1.51,1.51,0,0,0-.42-.05,1.84,1.84,0,0,0-.41.05,1.09,1.09,0,0,0-.37.14l-.21.12a.63.63,0,0,0-.24.21.4.4,0,0,0,0,.48.75.75,0,0,0,.25.21l1.2.69a1,1,0,0,0,.36.14,1.47,1.47,0,0,0,.42.05,1.4,1.4,0,0,0,.41-.05,1.09,1.09,0,0,0,.37-.14l.21-.12a.83.83,0,0,0,.24-.21.4.4,0,0,0,0-.48.75.75,0,0,0-.25-.21Zm-3.49.76a1.42,1.42,0,0,0-.36-.14,2,2,0,0,0-.42-.05,1.84,1.84,0,0,0-.41.05,1.35,1.35,0,0,0-.37.14l-.08.05a.73.73,0,0,0-.27.25.4.4,0,0,0,0,.3l-.45-.06-.1.06,2.66,1.54.31-.19-1.94-1.12a.65.65,0,0,1-.15-.12.24.24,0,0,1,0-.29.38.38,0,0,1,.15-.12l.21-.13a1,1,0,0,1,.21-.08,1,1,0,0,1,.25,0l.24,0,.22.08,1.94,1.13.32-.19Zm-.87,2.54a.46.46,0,0,0-.08-.24.75.75,0,0,0-.25-.21l-.1-.07-.37.16.17.1a.49.49,0,0,1,.15.13.24.24,0,0,1,0,.14.27.27,0,0,1,0,.14.44.44,0,0,1-.14.13l-.22.12a.66.66,0,0,1-.21.08,1,1,0,0,1-.25,0l-.24,0a.83.83,0,0,1-.22-.08l-.59-.34,1.45-.84-.63-.37a1.5,1.5,0,0,0-.36-.14,2,2,0,0,0-.42,0,1.84,1.84,0,0,0-.41,0,1.5,1.5,0,0,0-.36.14l-.22.13a.83.83,0,0,0-.24.21.46.46,0,0,0-.08.24.4.4,0,0,0,.09.24.63.63,0,0,0,.24.21l1.2.69a1.13,1.13,0,0,0,.36.14,2,2,0,0,0,.42.05,1.84,1.84,0,0,0,.41-.05,1.09,1.09,0,0,0,.37-.14l.21-.12a.63.63,0,0,0,.24-.21A.46.46,0,0,0,1518.41,278.65Zm-2.6-.09-.39-.23a.36.36,0,0,1-.15-.12.27.27,0,0,1,0-.14.24.24,0,0,1,0-.14.39.39,0,0,1,.15-.13l.21-.12a.49.49,0,0,1,.21-.08,1,1,0,0,1,.25,0,1,1,0,0,1,.24,0,.58.58,0,0,1,.22.08l.39.23-1.13.65"/><path class="cls-63" d="M1548.82,278.26c2.46,1.42,2.48,3.73,0,5.15l-52.47,30.49a9.77,9.77,0,0,1-8.9,0l-52.81-30.49c-2.47-1.42-2.48-3.73,0-5.15l52.47-30.5a9.83,9.83,0,0,1,8.9,0Zm-54.48,34.47,52.47-30.5c1.33-.77,1.32-2,0-2.8L1494,248.94a5.34,5.34,0,0,0-4.83,0l-52.47,30.49c-1.33.78-1.32,2,0,2.8l52.82,30.5a5.34,5.34,0,0,0,4.83,0"/></g></g></svg>