<svg id="Warstwa_1" data-name="Warstwa 1" xmlns="http://www.w3.org/2000/svg" width="89.77mm" height="89.03mm" viewBox="0 0 254.46 252.38"><defs><style>.cls-1{fill:#fff;}</style></defs><title>sygnet-white</title><path class="cls-1" d="M544.89,289.32,431,175.44a12.34,12.34,0,0,0-17.42,0l-31.93,31.94,81.94,81.94a12.31,12.31,0,0,1,0,17.41l-81.94,81.95,31.93,31.93a12.32,12.32,0,0,0,17.42,0L544.89,306.73A12.31,12.31,0,0,0,544.89,289.32Z" transform="translate(-294.03 -171.84)"/><path class="cls-1" d="M430.94,290.44l-68-68-34.35,34.34.22.22L298.64,287.1a15.7,15.7,0,0,0,0,22.22l29.73,29.73-.26.26,34.34,34.34,68.49-68.49A10.4,10.4,0,0,0,430.94,290.44Z" transform="translate(-294.03 -171.84)"/></svg>