<svg id="Warstwa_1" data-name="Warstwa 1" xmlns="http://www.w3.org/2000/svg" width="8.47mm" height="8.47mm" viewBox="0 0 24 24"><defs><style>.cls-1{fill:#fff;}.cls-2{fill:none;}.cls-3{fill:#424243;}</style></defs><title>user-icon</title><circle class="cls-1" cx="12" cy="12" r="9"/><path class="cls-2" d="M0,0H24V24H0Z" transform="translate(0 0)"/><path class="cls-3" d="M12,3a9,9,0,0,0-9,9H3v1.1a.9.9,0,0,0,.1.5c0,.1.1.2.1.4s.1.3.1.4.1.3.1.4.1.2.1.3.1.3.2.4.1.1.1.2a9.5,9.5,0,0,0,1,1.7h0a2.65,2.65,0,0,0,.5.6h0a8.64,8.64,0,0,0,4.3,2.6h0a9,9,0,0,0,4.6,0h0a9,9,0,0,0,6.7-8.7A8.79,8.79,0,0,0,12,3Zm0,2a3,3,0,0,1,3,3A3,3,0,0,1,9,8,3,3,0,0,1,12,5Zm0,14.3a7.3,7.3,0,0,1-6-3.2c0-2,4-3.1,6-3.1s6,1.1,6,3.1A7.3,7.3,0,0,1,12,19.3Z" transform="translate(0 0)"/></svg>